<?xml version="1.0" encoding="utf-8" ?>
<svg xmlns="http://www.w3.org/2000/svg" xmlns:xlink="http://www.w3.org/1999/xlink" width="1024" height="1024">
	<path fill="#FAA413" d="M176.476 200.604C178.351 200.431 180.379 200.143 182.249 200.416C188.528 201.335 227.891 231.279 232.226 238.017C233.858 240.553 234.048 244.8 233.239 247.652C231.795 252.748 227.714 255.529 223.306 257.868C221.357 258.122 219.518 258.232 217.593 257.718C210.424 255.804 171.35 226.172 167.799 219.464C166.233 216.505 166.208 212.515 167.355 209.427C169.012 204.964 172.343 202.551 176.476 200.604Z"/>
	<path fill="#FAA413" d="M682.106 197.555C685.279 197.414 688.269 197.835 691.202 199.107C694.493 200.535 696.665 202.954 697.97 206.27C699.24 209.494 699.327 213.309 697.756 216.457C695.757 220.463 658.68 250.04 652.402 254.331C651.015 255.279 649.563 255.943 647.997 256.54C645.201 257.05 642.613 257.362 639.867 256.438Q639.246 256.234 638.648 255.968Q638.05 255.703 637.482 255.379Q636.913 255.055 636.38 254.676Q635.847 254.297 635.355 253.867Q634.862 253.437 634.415 252.959Q633.968 252.482 633.571 251.962Q633.174 251.442 632.831 250.885Q632.488 250.328 632.202 249.74Q631.899 249.113 631.664 248.458Q631.428 247.803 631.264 247.126Q631.099 246.45 631.006 245.76Q630.914 245.07 630.895 244.374Q630.875 243.678 630.93 242.984Q630.984 242.29 631.111 241.605Q631.238 240.921 631.437 240.254Q631.636 239.587 631.904 238.944C632.801 236.752 634.229 234.919 635.869 233.232C643.243 225.645 673.543 201.305 682.106 197.555Z"/>
	<path fill="#FAA413" d="M594.136 122.62C597.05 122.253 599.878 122.217 602.66 123.29C606.004 124.58 608.909 126.771 610.321 130.151C611.975 134.109 611.077 138.054 609.538 141.873C606.129 150.337 585.973 185.505 580.392 191.854C578.684 193.797 576.817 194.634 574.462 195.627C572.378 195.748 570.331 195.871 568.271 195.43C564.584 194.64 560.965 192.474 558.915 189.259C557.288 186.708 556.442 182.854 557.279 179.891C559.675 171.408 568.072 160.417 572.646 152.501C577.303 144.441 581.498 135.215 587.13 127.833C589.027 125.348 591.434 124.026 594.136 122.62Z"/>
	<path fill="#FAA413" d="M112.613 300.586C117.366 300.077 121.92 301.354 126.489 302.545C137.073 305.302 167.4 312.837 175.655 317.193Q176.48 317.625 177.231 318.175Q177.983 318.724 178.645 319.379Q179.307 320.033 179.865 320.778Q180.423 321.523 180.865 322.343C182.618 325.53 182.832 329.107 181.809 332.561C180.345 337.507 177.09 340.104 172.717 342.409C169.211 342.716 165.206 341.67 161.802 340.917C152.871 338.941 144.138 336.073 135.342 333.584C127.221 331.286 118.078 329.62 110.576 325.724C108.234 324.508 106.333 322.995 104.957 320.703C102.917 317.306 102.776 313.403 103.857 309.657C105.216 304.948 108.518 302.73 112.613 300.586Z"/>
	<path fill="#FAA413" d="M166.664 501.138C169.546 500.947 172.193 501.327 174.676 502.892C178.028 505.005 180.399 508.56 181.191 512.43C181.885 515.823 181.371 519.416 179.434 522.321C178.366 523.923 176.918 525.155 175.236 526.071C166.464 530.847 155.344 533.586 145.856 536.812C136.638 539.946 127.294 543.884 117.773 545.922C114.95 546.095 111.91 545.272 109.535 543.743C105.93 541.421 104.287 538.059 103.435 533.954C102.787 530.831 103.198 527.896 105.031 525.243C106.903 522.535 109.76 520.7 112.667 519.266C120.853 515.228 129.833 513.313 138.44 510.437C147.879 507.282 156.823 503.046 166.664 501.138Z"/>
	<path fill="#FAA413" d="M263.174 123.066C265.903 123.007 268.793 123.012 271.373 124C273.174 124.69 274.416 125.665 275.669 127.111C281.181 133.476 285.216 141.65 289.611 148.806C294.981 157.55 301.228 166.333 305.501 175.678C307.401 179.833 308.344 183.35 306.568 187.812C304.843 192.147 301.115 194.183 297.036 195.817C293.943 196.072 290.709 196.04 287.791 194.847C286.163 194.182 285.01 193.292 283.871 191.949C279.086 186.31 275.628 179.204 271.784 172.908C265.72 162.975 258.45 152.847 254.009 142.095C252.376 138.14 251.577 134.801 253.44 130.718C255.328 126.582 259.069 124.509 263.174 123.066Z"/>
	<path fill="#FAA413" d="M487.003 80.5693C489.959 80.3792 492.96 80.3793 495.809 81.28C499.091 82.3177 501.923 84.3734 503.359 87.5858C504.675 90.5299 504.282 94.7133 503.901 97.8778C502.76 107.335 499.824 116.783 497.567 126.015C495.486 134.533 493.957 143.57 490.8 151.765C488.702 157.209 486.011 159.139 480.843 161.435C478.376 161.623 475.918 161.534 473.546 160.778C469.691 159.55 466.576 157.031 464.845 153.347C463.806 151.136 463.356 148.99 463.559 146.551C464.45 135.845 468.528 125.215 471.248 114.847C473.289 107.064 474.752 99.0324 477.435 91.4373C479.418 85.8261 481.506 83.1844 487.003 80.5693Z"/>
	<path fill="#FAA413" d="M371.121 80.5507C374.281 80.4118 377.365 80.7618 380.192 82.3009C384.39 84.5871 385.853 88.9957 387.115 93.3157C389.272 100.695 390.269 108.672 391.676 116.23C393.674 126.956 397.003 138.938 396.657 149.886C396.601 151.663 396.192 153.219 395.303 154.763C393.054 158.668 389.399 160.349 385.197 161.447C381.872 161.516 378.628 161.39 375.534 160.006C371.848 158.356 370.435 155.65 369.17 151.998C365.765 142.163 360.23 106.765 359.943 96.2088C359.868 93.4571 359.862 90.3338 361.127 87.8377C363.188 83.7729 367.014 81.9559 371.121 80.5507Z"/>
	<path fill="#FAA413" d="M101.094 406.243Q119.034 405.828 136.975 406.194C142.239 406.327 147.907 406.155 153.085 407.078C155.943 407.587 158.781 408.288 160.951 410.338C163.536 412.779 164.801 416.519 164.889 420.011C164.987 423.863 163.661 427.885 160.82 430.568C156.498 434.649 150.657 434.58 145.125 434.554L113.447 434.687C106.571 434.746 98.9421 435.435 92.1702 434.202C89.249 433.67 86.5007 432.492 84.2985 430.468Q83.8128 430.02 83.3735 429.527Q82.9342 429.033 82.5457 428.499Q82.1572 427.965 81.8231 427.395Q81.4891 426.825 81.2129 426.225Q80.9366 425.625 80.7208 425.001Q80.505 424.376 80.3517 423.734Q80.1984 423.091 80.1092 422.437Q80.02 421.782 79.9957 421.122Q79.9665 420.413 80.0112 419.705Q80.056 418.997 80.1742 418.298Q80.2924 417.599 80.4829 416.916Q80.6734 416.232 80.934 415.573Q81.1945 414.913 81.5224 414.284Q81.8503 413.655 82.2419 413.064Q82.6335 412.472 83.0846 411.925Q83.5357 411.377 84.0414 410.88C88.8495 406.178 94.853 406.302 101.094 406.243Z"/>
	<path fill="#0E5C83" d="M509.394 815.534C513.57 815.497 515.591 816.077 518.847 818.713C524.641 823.406 529.351 830.364 533.883 836.248C548.028 854.613 567.096 879.814 569.226 903.412C570.56 918.19 564.456 933.294 554.999 944.438C544.258 957.096 531.207 962.519 514.962 963.883C508.732 964.138 502.018 963.174 496.025 961.442Q494.668 961.049 493.333 960.588Q491.997 960.127 490.686 959.601Q489.375 959.074 488.092 958.483Q486.809 957.891 485.557 957.237Q484.305 956.582 483.087 955.866Q481.869 955.15 480.688 954.374Q479.508 953.598 478.367 952.764Q477.227 951.93 476.129 951.04Q475.032 950.151 473.98 949.207Q472.928 948.264 471.925 947.269Q470.922 946.275 469.969 945.232Q469.016 944.188 468.117 943.099Q467.218 942.009 466.374 940.876Q465.53 939.743 464.743 938.57Q463.957 937.396 463.23 936.185Q462.503 934.973 461.837 933.727C454.935 921.102 452.888 906.698 456.983 892.817C462.472 874.21 492.884 824.422 509.394 815.534Z"/>
	<path fill="#FAA413" d="M511.788 847.814C522.614 856.25 543.871 892.125 545.608 905.737C546.614 913.617 543.748 921.715 538.837 927.838C532.151 936.173 523.375 939.554 513.019 940.677C505.404 940.479 498.171 938.817 492.029 934.067C484.898 928.553 479.782 920.541 478.837 911.484C476.672 890.749 499.185 862.955 511.788 847.814Z"/>
	<path fill="#0E5C83" d="M423.354 194.72C436.311 193.956 449.989 195.144 462.817 196.999C507.361 203.441 550.585 221.544 584.091 252.044C597.83 264.551 609.829 278.889 620.921 293.749Q628.806 292.307 636.775 291.442Q644.744 290.577 652.755 290.293Q660.766 290.01 668.776 290.309Q676.786 290.609 684.753 291.49Q687.365 291.787 689.97 292.147Q692.574 292.507 695.169 292.93Q697.764 293.354 700.347 293.84Q702.931 294.327 705.502 294.876Q708.073 295.425 710.63 296.036Q713.188 296.648 715.729 297.322Q718.27 297.995 720.794 298.73Q723.319 299.465 725.824 300.262Q728.33 301.058 730.816 301.915Q733.301 302.772 735.765 303.69Q738.229 304.607 740.67 305.584Q743.111 306.561 745.527 307.597Q747.943 308.633 750.334 309.727Q752.724 310.822 755.087 311.974Q757.451 313.127 759.785 314.336Q762.119 315.546 764.424 316.812Q766.728 318.078 769.001 319.399Q771.273 320.721 773.513 322.098Q775.753 323.474 777.959 324.905Q780.165 326.335 782.335 327.819Q784.506 329.303 786.639 330.839Q788.773 332.375 790.869 333.963Q792.964 335.551 795.021 337.189Q797.077 338.827 799.093 340.515Q801.109 342.203 803.083 343.939Q805.057 345.675 806.989 347.459Q808.92 349.243 810.808 351.073Q812.695 352.903 814.537 354.779Q816.38 356.654 818.176 358.574Q819.972 360.494 821.721 362.457Q823.47 364.42 825.171 366.425Q826.872 368.43 828.523 370.476Q837.106 381.323 844.394 393.079C847.716 398.496 850.473 404.479 854.589 409.356C859.983 415.748 867.677 420.369 873.956 425.894C882.371 433.297 890.064 442.447 897.001 451.236Q898.528 453.175 900.007 455.151Q901.487 457.127 902.917 459.139Q904.347 461.15 905.727 463.197Q907.108 465.243 908.438 467.322Q909.767 469.402 911.045 471.513Q912.324 473.625 913.55 475.767Q914.776 477.909 915.949 480.081Q917.122 482.253 918.241 484.452Q919.361 486.652 920.426 488.879Q921.491 491.106 922.501 493.358Q923.511 495.61 924.465 497.886Q925.42 500.162 926.318 502.461Q927.216 504.76 928.058 507.081Q928.9 509.401 929.684 511.742Q930.468 514.082 931.195 516.441Q931.921 518.8 932.59 521.176Q933.258 523.552 933.868 525.943Q934.478 528.335 935.029 530.741Q935.58 533.147 936.072 535.566Q936.564 537.985 936.996 540.415Q937.428 542.845 937.801 545.285Q938.173 547.725 938.486 550.173Q938.798 552.622 939.051 555.077Q939.303 557.532 939.495 559.993Q939.687 562.454 939.818 564.919Q939.949 567.384 940.02 569.851Q940.091 572.318 940.101 574.786Q940.111 577.255 940.061 579.722Q940.011 582.19 939.9 584.656Q939.789 587.122 939.617 589.584Q939.446 592.046 939.214 594.504Q938.982 596.961 938.69 599.412Q938.393 601.89 938.035 604.36Q937.678 606.83 937.26 609.29Q936.843 611.751 936.366 614.2Q935.888 616.65 935.351 619.087Q934.814 621.524 934.218 623.948Q933.622 626.371 932.967 628.779Q932.312 631.188 931.599 633.579Q930.885 635.971 930.113 638.344Q929.342 640.718 928.513 643.071Q927.684 645.425 926.797 647.758Q925.911 650.091 924.968 652.402Q924.025 654.713 923.026 657Q922.027 659.287 920.973 661.549Q919.919 663.811 918.81 666.047Q917.701 668.282 916.537 670.49Q915.374 672.698 914.157 674.877Q912.941 677.056 911.671 679.205Q910.402 681.354 909.08 683.471Q907.759 685.588 906.386 687.672Q905.013 689.756 903.59 691.807Q902.167 693.857 900.695 695.872Q899.222 697.887 897.701 699.865Q896.18 701.844 894.611 703.784Q893.042 705.725 891.426 707.627Q889.81 709.529 888.149 711.391Q886.487 713.253 884.78 715.074Q883.074 716.895 881.323 718.674Q879.573 720.453 877.78 722.189Q875.987 723.924 874.151 725.616Q872.317 727.307 870.441 728.954Q868.565 730.6 866.65 732.2Q864.735 733.8 862.781 735.353C819.621 769.244 763.692 786.802 708.807 780.171C723.312 800.778 742.309 825.236 745.216 850.981C746.807 865.069 742.717 878.734 733.879 889.786Q732.956 890.923 731.978 892.013Q731.001 893.104 729.972 894.147Q728.944 895.189 727.866 896.18Q726.788 897.172 725.664 898.11Q724.539 899.049 723.371 899.932Q722.202 900.815 720.993 901.64Q719.783 902.466 718.535 903.232Q717.287 903.998 716.004 904.704Q714.72 905.409 713.404 906.051Q712.088 906.694 710.742 907.272Q709.397 907.85 708.025 908.363Q706.653 908.875 705.258 909.321Q703.863 909.767 702.448 910.145Q701.033 910.523 699.602 910.832Q698.17 911.141 696.725 911.381Q695.281 911.621 693.826 911.791Q692.406 911.947 690.981 912.033Q689.555 912.119 688.127 912.135Q686.698 912.15 685.271 912.095Q683.844 912.039 682.421 911.914Q680.999 911.788 679.584 911.592Q678.169 911.396 676.766 911.13Q675.362 910.865 673.974 910.53Q672.585 910.195 671.215 909.792Q669.845 909.389 668.496 908.919Q667.148 908.449 665.824 907.913Q664.5 907.376 663.204 906.775Q661.909 906.174 660.645 905.51Q659.38 904.845 658.15 904.119Q656.92 903.393 655.728 902.607Q654.535 901.821 653.383 900.977Q652.231 900.133 651.122 899.233Q650.006 898.334 648.937 897.381Q647.868 896.427 646.849 895.421Q645.829 894.415 644.862 893.358Q643.894 892.302 642.981 891.198Q642.068 890.095 641.211 888.946Q640.355 887.798 639.557 886.608Q638.76 885.418 638.023 884.189Q637.287 882.961 636.613 881.697Q635.939 880.432 635.33 879.136Q634.721 877.839 634.178 876.514Q633.635 875.188 633.159 873.837Q632.683 872.486 632.276 871.112Q631.87 869.739 631.532 868.347Q631.195 866.954 630.928 865.547Q630.662 864.139 630.466 862.72Q630.271 861.301 630.147 859.874C627.482 830.276 654.871 795.779 672.895 774.006C663.991 771.228 655.04 768.527 646.299 765.266C643.968 764.396 637.137 761.157 634.928 761.189C634.521 761.194 634.143 761.405 633.751 761.513C627.913 764.758 622.045 768.185 615.875 770.751C597.238 778.499 576.615 779.545 556.709 779.621C544.702 790.681 528.596 799.374 511.911 799.373C493.859 799.371 478.231 792.086 465.617 779.348C450.491 779.463 435.437 778.756 420.321 778.521Q387.125 778.179 353.936 778.921C368.184 797.943 387.924 824.531 392.243 848.207C394.852 862.515 390.166 877.934 381.894 889.647Q381.104 890.782 380.257 891.876Q379.41 892.97 378.509 894.02Q377.608 895.07 376.656 896.073Q375.703 897.076 374.7 898.029Q373.698 898.983 372.648 899.884Q371.599 900.786 370.506 901.633Q369.412 902.48 368.277 903.271Q367.142 904.062 365.968 904.794Q364.795 905.527 363.586 906.199Q362.376 906.871 361.135 907.481Q359.893 908.091 358.622 908.638Q357.352 909.184 356.055 909.666Q354.758 910.147 353.438 910.563Q352.119 910.978 350.78 911.326Q349.441 911.674 348.086 911.954Q346.731 912.234 345.364 912.445C329.571 914.998 314.211 911.548 301.226 902.163Q300.094 901.356 299.005 900.494Q297.915 899.631 296.871 898.715Q295.826 897.799 294.828 896.831Q293.831 895.863 292.883 894.847Q291.936 893.83 291.041 892.767Q290.145 891.705 289.305 890.598Q288.464 889.492 287.68 888.344Q286.896 887.197 286.171 886.011Q285.445 884.826 284.78 883.606Q284.115 882.386 283.513 881.133Q282.91 879.881 282.371 878.6Q281.832 877.319 281.358 876.013Q280.884 874.707 280.476 873.378Q280.069 872.05 279.728 870.703Q279.388 869.355 279.116 867.992Q278.843 866.63 278.64 865.255C273.636 832.937 298.153 803.05 316.047 778.6C294.582 777.844 273.257 779.717 252.335 773.486Q250.851 773.036 249.378 772.55Q247.906 772.064 246.445 771.541Q244.985 771.019 243.539 770.46Q242.092 769.901 240.659 769.307Q239.227 768.713 237.81 768.083Q236.392 767.454 234.991 766.79Q233.59 766.125 232.205 765.426Q230.821 764.727 229.454 763.994Q228.088 763.261 226.74 762.495Q225.391 761.728 224.063 760.928Q222.734 760.128 221.426 759.296Q220.117 758.463 218.83 757.599Q217.542 756.734 216.277 755.838Q215.011 754.942 213.768 754.015Q212.525 753.087 211.305 752.13Q210.085 751.172 208.89 750.184Q207.694 749.196 206.523 748.179Q205.352 747.162 204.207 746.117Q203.062 745.071 201.943 743.997Q200.824 742.924 199.732 741.823Q198.64 740.721 197.575 739.594Q196.511 738.466 195.474 737.312Q194.438 736.158 193.431 734.979Q192.423 733.8 191.446 732.596Q190.468 731.393 189.52 730.165Q188.572 728.938 187.655 727.687Q186.738 726.436 185.853 725.163Q184.967 723.89 184.113 722.596Q183.259 721.301 182.437 719.986Q181.616 718.671 180.827 717.336Q180.038 716 179.282 714.646Q178.527 713.292 177.805 711.919Q177.111 710.619 176.45 709.302Q175.788 707.985 175.159 706.653Q174.531 705.32 173.935 703.972Q173.34 702.624 172.778 701.262Q172.216 699.899 171.688 698.523Q171.16 697.148 170.667 695.759Q170.173 694.371 169.714 692.97Q169.255 691.57 168.831 690.159Q168.407 688.747 168.017 687.326Q167.628 685.905 167.275 684.474Q166.921 683.044 166.603 681.605Q166.285 680.166 166.002 678.72Q165.72 677.273 165.473 675.821Q165.227 674.368 165.016 672.909Q164.806 671.451 164.632 669.987Q164.458 668.524 164.32 667.057Q164.182 665.59 164.081 664.12Q163.979 662.649 163.914 661.177Q163.849 659.705 163.821 658.232Q163.793 656.758 163.801 655.285Q163.809 653.811 163.853 652.338Q163.898 650.865 163.979 649.394Q164.06 647.922 164.178 646.453Q164.295 644.984 164.449 643.519Q164.603 642.053 164.794 640.592Q164.984 639.131 165.21 637.675Q165.437 636.219 165.699 634.768Q165.961 633.318 166.26 631.875Q166.558 630.432 166.892 628.997Q167.226 627.562 167.595 626.135Q167.965 624.708 168.37 623.292Q168.774 621.875 169.214 620.468C180.023 584.802 205.529 561.941 237.366 544.972C217.404 513.965 206.406 477.148 203.382 440.509Q203.181 437.739 203.047 434.965Q202.913 432.191 202.846 429.415Q202.779 426.639 202.78 423.862Q202.78 421.084 202.848 418.308Q202.916 415.532 203.052 412.758Q203.187 409.984 203.389 407.214Q203.592 404.445 203.861 401.681Q204.131 398.917 204.467 396.16Q204.804 393.403 205.207 390.656Q205.611 387.908 206.08 385.171Q206.55 382.434 207.086 379.709Q207.622 376.984 208.224 374.273Q208.826 371.562 209.494 368.866Q210.161 366.17 210.894 363.491Q211.627 360.813 212.424 358.152Q213.222 355.492 214.083 352.852Q214.945 350.212 215.871 347.594Q216.796 344.975 217.785 342.38Q218.774 339.785 219.825 337.215Q220.876 334.644 221.99 332.1Q223.103 329.556 224.278 327.039Q225.453 324.523 226.688 322.036Q227.924 319.549 229.219 317.092Q230.515 314.636 231.869 312.211Q233.224 309.787 234.637 307.396Q236.05 305.005 237.52 302.649Q238.991 300.294 240.518 297.974Q242.045 295.655 243.628 293.373Q245.211 291.091 246.849 288.848Q248.487 286.606 250.179 284.403Q251.871 282.201 253.616 280.04Q255.36 277.88 257.157 275.762Q258.598 274.058 260.073 272.383Q261.547 270.708 263.054 269.061Q264.56 267.415 266.099 265.799Q267.638 264.182 269.207 262.596Q270.777 261.01 272.378 259.455Q273.978 257.9 275.609 256.376Q277.24 254.853 278.9 253.361Q280.56 251.87 282.249 250.411Q283.938 248.953 285.655 247.527Q287.372 246.102 289.117 244.71Q290.861 243.319 292.633 241.961Q294.404 240.604 296.202 239.282Q298 237.96 299.823 236.673Q301.646 235.386 303.494 234.134Q305.342 232.883 307.214 231.669Q309.086 230.454 310.981 229.276Q312.877 228.098 314.795 226.957Q316.713 225.816 318.653 224.713Q320.593 223.611 322.554 222.546Q324.515 221.481 326.497 220.454Q328.479 219.428 330.48 218.441Q332.481 217.453 334.501 216.505Q336.521 215.557 338.56 214.648Q340.598 213.74 342.654 212.871Q344.709 212.003 346.782 211.174Q348.854 210.346 350.942 209.559Q353.03 208.771 355.133 208.024Q357.236 207.278 359.354 206.573Q361.471 205.867 363.601 205.203Q365.732 204.539 367.875 203.917Q370.018 203.295 372.173 202.715Q374.328 202.135 376.494 201.597C391.98 197.845 407.496 195.983 423.354 194.72Z"/>
	<path fill="#FAA413" d="M334.452 794.39C346.528 806.957 366.07 835.011 369.121 852.192C370.583 860.426 368.281 869.156 363.434 875.912C356.945 884.955 347.212 888.31 336.615 889.963C328.757 889.454 321.019 887.905 314.615 883.024C307.806 877.835 302.905 869.723 301.715 861.225C298.551 838.629 321.584 811.574 334.452 794.39Z"/>
	<path fill="#FAA413" d="M687.557 792.858C699.997 805.737 719.416 835.356 722.121 853.009C723.317 860.809 721.156 868.456 716.461 874.721C709.333 884.234 700.018 887.331 688.675 889.022C680.862 888.395 673.649 886.678 667.184 882.032C660.107 876.945 654.893 868.747 653.671 860.072C650.63 838.49 675.103 809.43 687.557 792.858Z"/>
	<path fill="#FAA413" d="M511.288 680.375C515.61 686.022 519.604 691.918 523.729 697.71C532.466 709.977 543.821 723.5 545.89 738.86C547.051 747.476 544.357 755.986 539.01 762.762C532.043 771.592 522.421 774.77 511.639 776.007C503.026 775.397 495.432 773.409 488.661 767.771Q488.019 767.242 487.404 766.682Q486.789 766.122 486.202 765.533Q485.615 764.943 485.058 764.325Q484.501 763.708 483.975 763.063Q483.448 762.419 482.955 761.75Q482.461 761.08 482.001 760.387Q481.541 759.694 481.115 758.979Q480.69 758.265 480.3 757.53Q479.91 756.795 479.557 756.042Q479.204 755.289 478.888 754.519Q478.572 753.749 478.295 752.965Q478.017 752.181 477.779 751.384Q477.54 750.587 477.341 749.78Q477.142 748.972 476.983 748.155Q476.824 747.339 476.706 746.516Q476.587 745.692 476.509 744.864C474.763 724.482 498.628 695.436 511.288 680.375Z"/>
	<path fill="#15A2C6" d="M873.923 463.62C876.824 464.782 879.22 468.434 881.026 470.898C910.655 511.322 921.398 558.324 913.558 607.735C906.398 652.86 878.638 694.75 841.791 721.339C798.459 752.608 751.085 762.843 698.399 754.353C684.044 751.631 670.524 747.969 656.957 742.484C662.178 736.833 666.673 730.841 671.029 724.522C684.245 724.093 697.179 722.9 710.217 720.634C762.191 711.603 809.84 678.162 839.844 635.336Q841.167 633.436 842.449 631.508Q843.732 629.58 844.973 627.625Q846.214 625.67 847.413 623.689Q848.612 621.709 849.769 619.703Q850.926 617.697 852.04 615.667Q853.154 613.637 854.225 611.584Q855.295 609.531 856.322 607.456Q857.349 605.38 858.331 603.283Q859.313 601.186 860.251 599.069Q861.188 596.952 862.081 594.815Q862.973 592.679 863.82 590.524Q864.666 588.368 865.467 586.196Q866.268 584.023 867.022 581.834Q867.776 579.645 868.484 577.44Q869.192 575.235 869.852 573.016Q870.513 570.797 871.126 568.564Q871.739 566.331 872.305 564.086Q872.871 561.84 873.388 559.583Q873.906 557.327 874.376 555.059Q874.846 552.792 875.267 550.515Q875.689 548.238 876.062 545.953Q876.435 543.668 876.759 541.375Q877.083 539.082 877.359 536.783Q877.634 534.484 877.861 532.18Q878.087 529.876 878.265 527.567Q878.442 525.258 878.571 522.946Q878.699 520.634 878.778 518.32Q878.857 516.006 878.887 513.691Q878.917 511.375 878.898 509.06Q878.879 506.745 878.81 504.43Q878.742 502.116 878.624 499.803Q878.507 497.491 878.34 495.181C877.606 484.562 875.766 474.091 873.923 463.62Z"/>
	<path fill="#FDD23B" d="M261.431 536.754C232.79 489.965 221.564 441.934 230.81 387.41Q231.241 384.975 231.731 382.552Q232.222 380.128 232.771 377.717Q233.321 375.307 233.929 372.91Q234.537 370.513 235.204 368.132Q235.871 365.751 236.596 363.387Q237.321 361.023 238.103 358.678Q238.886 356.332 239.725 354.006Q240.565 351.681 241.461 349.376Q242.358 347.072 243.31 344.79Q244.262 342.508 245.27 340.25Q246.278 337.992 247.341 335.76Q248.404 333.527 249.521 331.322Q250.639 329.116 251.81 326.938Q252.98 324.76 254.204 322.612Q255.428 320.463 256.704 318.345Q257.98 316.227 259.308 314.141Q260.635 312.055 262.013 310.002Q263.391 307.949 264.819 305.93Q266.247 303.912 267.724 301.929Q269.201 299.945 270.726 297.999Q272.251 296.053 273.823 294.144Q275.395 292.236 277.013 290.366Q278.632 288.497 280.295 286.668Q281.959 284.838 283.667 283.05Q285.375 281.262 287.126 279.517Q288.877 277.771 290.671 276.069Q292.464 274.366 294.298 272.708Q296.133 271.05 298.007 269.438Q299.882 267.825 301.795 266.259Q303.708 264.693 305.659 263.174Q307.611 261.655 309.598 260.184Q311.586 258.714 313.609 257.292C359.353 224.94 412.847 213.355 468.003 222.943C517.131 231.484 565.653 259.535 594.45 300.537C576.864 306.221 558.686 314.684 543.128 324.64C501.786 353.379 481.309 378.082 460.765 424.06C453.084 423.931 445.217 423.5 437.555 423.989C406.042 426.003 376.728 438.481 354.033 460.533C337.452 476.644 326.29 496.275 319.55 518.281C317.612 524.142 316.841 530.642 315.784 536.716C296.715 534.281 280.541 533.734 261.431 536.754Z"/>
	<path fill="#FEFEFE" d="M288.558 396.164C285.155 397.298 281.71 397.702 278.138 397.343C274.498 396.977 271.235 395.698 268.958 392.727C266.431 389.43 265.337 384.69 265.945 380.604C266.632 375.992 269.438 371.891 273.251 369.267C276.323 367.153 280.234 366.048 283.942 366.771C289.239 367.804 293.125 371.952 296.003 376.235C296.811 381.785 297.023 387.371 293.394 392.058C292.083 393.751 290.36 395.037 288.558 396.164Z"/>
	<path fill="#FEFEFE" d="M304.947 356.167C302.957 356.645 300.805 357.078 298.753 356.902C294.737 356.558 291.339 354.529 288.786 351.45C286.62 348.84 285.783 345.451 286.184 342.112C287.906 327.779 317.432 298.78 328.888 290.128C350.88 273.519 375.424 263.103 402.344 257.501C408.622 256.195 415.487 254.221 421.939 255.268C425.745 255.885 429.204 257.758 431.333 261.038C433.792 264.825 433.707 269.126 432.8 273.372C429.7 277.809 427.007 280.213 421.504 281.176C414.12 282.469 406.822 282.506 399.441 284.251C369.103 291.42 337.818 310.311 319.321 335.614C314.845 341.738 311.425 348.721 306.421 354.428C305.921 354.998 305.44 355.59 304.947 356.167Z"/>
	<path fill="#FAA413" d="M432.8 273.372C469.759 274.271 514.853 294.956 540.175 321.513L543.128 324.64C501.786 353.379 481.309 378.082 460.765 424.06C453.084 423.931 445.217 423.5 437.555 423.989C406.042 426.003 376.728 438.481 354.033 460.533C337.452 476.644 326.29 496.275 319.55 518.281C316.897 515.542 314.562 512.35 312.35 509.242C289.185 476.691 281.949 435.119 288.558 396.164C290.36 395.037 292.083 393.751 293.394 392.058C297.023 387.371 296.811 381.785 296.003 376.235C298.753 369.449 301.894 362.82 304.947 356.167C305.44 355.59 305.921 354.998 306.421 354.428C311.425 348.721 314.845 341.738 319.321 335.614C337.818 310.311 369.103 291.42 399.441 284.251C406.822 282.506 414.12 282.469 421.504 281.176C427.007 280.213 429.7 277.809 432.8 273.372Z"/>
	<path fill="#4DCBDE" d="M657.455 314.228L660.151 314.283C712.403 315.555 762.399 335.039 798.729 373.287Q800.431 375.07 802.09 376.895Q803.748 378.719 805.361 380.583Q806.974 382.448 808.541 384.351Q810.108 386.255 811.627 388.196Q813.147 390.137 814.619 392.115Q816.091 394.093 817.514 396.106Q818.937 398.119 820.31 400.167Q821.683 402.214 823.006 404.295Q824.328 406.375 825.6 408.488Q826.871 410.6 828.09 412.743Q829.31 414.886 830.476 417.058Q831.642 419.23 832.755 421.43Q833.868 423.629 834.927 425.856Q835.985 428.082 836.989 430.334Q837.993 432.586 838.941 434.862Q839.89 437.137 840.782 439.435Q841.674 441.734 842.51 444.053Q843.346 446.372 844.125 448.712Q844.903 451.051 845.625 453.408Q846.346 455.766 847.009 458.14Q847.672 460.515 848.277 462.905Q848.882 465.295 849.429 467.699Q849.975 470.103 850.462 472.52Q850.949 474.936 851.377 477.364Q851.805 479.792 852.173 482.23Q852.542 484.668 852.85 487.114Q853.159 489.56 853.407 492.012Q853.656 494.465 853.844 496.923Q854.032 499.382 854.16 501.844Q854.289 504.306 854.356 506.77Q854.424 509.234 854.432 511.7Q854.439 514.165 854.386 516.63Q854.324 518.973 854.205 521.315Q854.086 523.656 853.909 525.994Q853.733 528.331 853.499 530.664Q853.265 532.997 852.975 535.323Q852.684 537.649 852.336 539.967Q851.988 542.286 851.584 544.595Q851.18 546.904 850.719 549.203Q850.258 551.501 849.741 553.788Q849.224 556.074 848.651 558.348Q848.078 560.621 847.449 562.879Q846.821 565.138 846.137 567.38Q845.454 569.623 844.715 571.848Q843.977 574.073 843.184 576.279Q842.392 578.485 841.545 580.672Q840.699 582.858 839.799 585.022Q838.899 587.187 837.947 589.329Q836.994 591.471 835.99 593.589Q834.985 595.708 833.929 597.8Q832.872 599.893 831.765 601.96Q830.658 604.026 829.5 606.064Q828.343 608.103 827.135 610.113Q825.928 612.122 824.672 614.102Q823.416 616.081 822.112 618.029Q820.808 619.977 819.456 621.893Q818.105 623.808 816.707 625.69Q815.308 627.572 813.865 629.419Q812.421 631.266 810.932 633.077Q809.444 634.888 807.912 636.662Q806.379 638.436 804.803 640.172Q803.228 641.908 801.611 643.605Q799.993 645.302 798.334 646.959Q796.676 648.615 794.977 650.231C768.972 674.74 734.992 693.007 699.378 697.99C685.274 699.963 670.993 699.888 656.791 699.469C652.021 708.893 646.735 717.861 639.641 725.747C620.035 747.541 597.54 753.51 569.254 755.043C572.191 738.803 568.904 725.998 561.239 711.567C555.609 700.967 522.944 650.195 512.682 648.226C510.374 647.783 508.132 648.668 506.193 649.864C494.609 657.006 466.794 700.293 460.134 713.136C457.067 719.051 454.574 725.094 453.095 731.599C451.764 739.43 452.084 746.939 453.214 754.773L342.506 754.509C326.69 754.563 310.882 755.206 295.063 755.015C263.741 754.635 237.496 746.419 215.2 723.319C196.668 704.12 187.712 678.897 188.366 652.363C188.972 627.741 200.476 603.342 218.372 586.512C242.161 564.14 273.736 554.836 305.909 560.535C313.276 561.839 321.329 566.547 328.713 566.487C332.808 566.454 336.843 563.402 338.317 559.636C340.55 553.931 340.001 545.925 340.631 539.795Q340.835 537.69 341.132 535.595Q341.428 533.501 341.815 531.422Q342.203 529.342 342.681 527.282Q343.159 525.221 343.727 523.184Q344.294 521.146 344.951 519.136Q345.607 517.125 346.351 515.145Q347.094 513.165 347.924 511.219Q348.754 509.273 349.668 507.366Q350.581 505.458 351.578 503.593Q352.574 501.727 353.651 499.906Q354.728 498.086 355.884 496.315Q357.04 494.543 358.272 492.824Q359.504 491.104 360.81 489.441Q362.116 487.777 363.494 486.172Q364.871 484.567 366.318 483.024Q367.764 481.48 369.277 480.002C394.167 455.398 422.469 448.245 456.438 448.503C459.542 452.897 462.405 455.028 467.375 456.875C471.389 455.618 474.628 453.994 477 450.359C481.748 443.084 483.764 433.319 487.088 425.275C494.557 407.2 506.622 390.277 519.806 375.904C555.706 336.768 604.733 316.555 657.455 314.228Z"/>
	<path fill="#CDEAEC" d="M218.216 653.536C220.61 653.449 222.945 653.65 225.23 654.426C228.441 655.516 231.282 657.752 232.661 660.904Q232.884 661.425 233.055 661.965Q233.226 662.505 233.343 663.059Q233.461 663.613 233.523 664.176Q233.586 664.739 233.593 665.305Q233.599 665.872 233.551 666.436Q233.502 667 233.399 667.557Q233.295 668.114 233.137 668.658Q232.979 669.202 232.769 669.728C231.054 674.07 227.593 676.317 223.503 678.158C221.56 678.289 219.678 678.374 217.773 677.885C214.441 677.029 211.553 674.904 209.944 671.842Q209.651 671.281 209.416 670.694Q209.181 670.106 209.007 669.498Q208.832 668.889 208.721 668.266Q208.609 667.643 208.561 667.012Q208.514 666.381 208.53 665.748Q208.546 665.116 208.627 664.488Q208.707 663.86 208.851 663.244Q208.995 662.628 209.2 662.029C210.801 657.472 214.08 655.442 218.216 653.536Z"/>
	<path fill="#FEFEFE" d="M519.261 434.499C521.822 434.415 524.352 434.611 526.747 435.581Q527.336 435.815 527.899 436.107Q528.461 436.399 528.992 436.745Q529.523 437.092 530.016 437.489Q530.51 437.887 530.962 438.331Q531.413 438.776 531.818 439.264Q532.224 439.751 532.578 440.276Q532.933 440.802 533.233 441.36Q533.534 441.918 533.777 442.503C535.061 445.608 535.156 449.34 533.849 452.456C531.959 456.963 528.67 458.922 524.381 460.686C521.921 461.082 519.111 460.729 516.746 459.981Q516.187 459.807 515.648 459.578Q515.109 459.348 514.597 459.065Q514.084 458.781 513.603 458.448Q513.122 458.114 512.678 457.733Q512.233 457.352 511.83 456.928Q511.426 456.503 511.068 456.04Q510.709 455.577 510.4 455.08Q510.09 454.583 509.833 454.057Q509.55 453.472 509.326 452.861Q509.102 452.251 508.938 451.622Q508.774 450.993 508.672 450.351Q508.57 449.709 508.531 449.06Q508.492 448.412 508.516 447.762Q508.54 447.112 508.628 446.468Q508.715 445.824 508.865 445.192Q509.014 444.559 509.225 443.944C510.998 438.892 514.676 436.598 519.261 434.499Z"/>
	<path fill="#CDEAEC" d="M284.306 580.198C289.884 579.104 301.594 579.47 306.646 582.264C308.889 583.505 310.419 585.871 311.015 588.317C311.812 591.593 311.14 595.427 309.223 598.209C304.525 605.026 288.976 601.949 280.39 603.373C262.17 606.395 251.801 617.219 241.461 631.655C239.325 634.189 236.914 636.249 233.576 636.912C230.328 637.556 227.553 636.98 224.899 635.014C222.332 633.113 220.603 630.515 220.281 627.293C219.659 621.06 224.057 614.793 227.815 610.177C242.343 592.332 261.6 582.634 284.306 580.198Z"/>
	<path fill="#CDEAEC" d="M433.218 475.147C434.396 474.961 435.58 474.786 436.776 474.776Q437.504 474.777 438.227 474.851Q438.951 474.926 439.663 475.075Q440.376 475.223 441.069 475.443Q441.762 475.664 442.43 475.954Q443.097 476.244 443.731 476.6Q444.365 476.957 444.96 477.377Q445.554 477.796 446.103 478.274Q446.651 478.752 447.148 479.284C449.046 481.286 450.4 483.861 450.275 486.679C449.801 497.434 433.446 498.169 425.707 500.461C420.645 501.961 415.538 504.125 411.102 507.007C402.78 512.412 395.666 521.052 391.88 530.207C389.028 537.104 387.773 544.565 381.927 549.706C381.046 550.009 380.157 550.306 379.248 550.517C376.008 551.269 372.187 551.182 369.38 549.19C367.053 547.539 365.897 544.902 365.435 542.161C363.585 531.18 371.76 516.998 377.801 508.413C391.031 489.611 410.878 478.993 433.218 475.147Z"/>
	<path fill="#CDEAEC" d="M634.313 341.692C636.698 341.228 639.741 341.233 642.052 341.943C645.09 342.877 647.426 344.81 648.856 347.653C650.435 350.789 650.651 353.957 649.422 357.247C645.627 367.4 629.129 366.255 620.306 368.479C613.146 370.284 605.706 373.052 599.082 376.291C585.724 382.821 573.901 391.117 563.539 401.864C557.664 407.958 553.778 417.937 546.08 421.67C545.339 421.87 544.597 422.068 543.843 422.215C540.804 422.811 537.277 421.787 534.798 419.992C532.291 418.176 530.554 415.749 530.239 412.618C529.639 406.644 533.94 400.605 537.463 396.142Q538.567 394.745 539.705 393.375Q540.843 392.005 542.014 390.663Q543.185 389.322 544.389 388.009Q545.592 386.696 546.827 385.413Q548.062 384.13 549.328 382.877Q550.594 381.624 551.89 380.403Q553.186 379.182 554.511 377.992Q555.836 376.802 557.19 375.646Q558.544 374.489 559.926 373.365Q561.308 372.242 562.716 371.152Q564.125 370.063 565.56 369.008Q566.995 367.953 568.455 366.933Q569.915 365.913 571.399 364.93Q572.884 363.946 574.392 362.999Q575.9 362.051 577.431 361.141Q578.961 360.231 580.514 359.358Q582.066 358.485 583.639 357.65Q585.212 356.816 586.805 356.02Q588.398 355.223 590.01 354.466Q591.622 353.709 593.252 352.992Q594.882 352.274 596.529 351.596Q598.176 350.919 599.839 350.281Q601.502 349.644 603.18 349.047Q604.858 348.451 606.55 347.895Q608.242 347.34 609.947 346.825Q611.652 346.311 613.369 345.839Q615.086 345.366 616.814 344.936Q618.542 344.505 620.28 344.117Q622.018 343.728 623.765 343.382Q625.512 343.037 627.267 342.733Q629.022 342.43 630.784 342.17Q632.545 341.909 634.313 341.692Z"/>
</svg>
