<?xml version="1.0" encoding="utf-8" ?>
<svg xmlns="http://www.w3.org/2000/svg" xmlns:xlink="http://www.w3.org/1999/xlink" width="1024" height="1024">
	<path fill="#262A4F" d="M511.215 159.995C513.628 160.069 515.555 160.521 517.57 161.921C522.395 165.271 526.889 169.508 531.424 173.26C541.161 181.319 550.846 189.442 560.527 197.57C586.554 219.42 612.739 241.109 638.936 262.757C653.352 274.67 667.638 287.434 682.73 298.448L682.568 272.425L676.389 270.36C671.93 268.409 668.339 264.849 666.637 260.235L666.38 259.5C664.368 253.881 665.419 245.265 665.431 239.291C665.444 232.192 664.352 222.878 666.45 216.085C668.048 210.913 672.452 207.097 677.114 204.65C679.416 203.442 681.855 202.904 684.437 202.713C690.975 202.231 697.607 202.682 704.155 202.741C714.219 202.831 724.289 202.777 734.354 202.782C749.291 202.79 764.228 202.824 779.165 202.767C786.327 202.739 793.558 202.338 800.712 202.599C803.393 202.697 805.91 203.142 808.469 203.974C812.975 205.438 816.737 209.39 818.805 213.562L819.185 214.353C819.571 215.138 819.892 215.824 820.137 216.672C821.875 222.674 820.646 231.732 820.628 238.03C820.612 243.946 821.252 250.635 820.371 256.457C820.022 258.764 819.025 260.914 817.772 262.863C813.704 269.189 808.767 270.774 801.859 272.233L801.893 398.007C810.904 407.279 821.87 415.363 831.894 423.558C837.511 428.149 853.762 439.403 855.283 446.019C856.084 449.499 855.513 454.278 855.515 457.931C855.521 467.353 855.501 476.776 855.501 486.198C855.501 493.667 855.552 501.136 855.577 508.605C855.59 512.469 855.916 516.676 855.465 520.5C855.272 522.133 854.502 523.667 853.528 524.979C851.901 527.169 848.499 529.201 845.75 529.393C843.785 529.53 841.879 528.293 840.324 527.25C833.746 522.837 828.032 517.013 821.976 511.905C810.994 502.643 799.847 493.6 788.965 484.213L788.503 607.519L798.316 613.503C817.643 626.992 827.123 646.277 831.095 668.969C852.758 669.23 874.346 678.993 889.555 694.238C902.266 706.978 910.991 724.203 913.75 742.011C914.827 748.962 914.515 756.198 914.529 763.213C914.548 773.619 914.553 784.026 914.555 794.433C929.775 794.093 943.02 792.966 955.084 803.914C962.133 810.31 966.641 818.541 966.857 828.25C967.056 837.201 963.325 845.887 957.053 852.193C951.623 857.652 945.296 861.604 937.542 862.658C927.171 864.068 915.465 862.897 904.939 862.75C887.729 862.509 870.52 862.535 853.309 862.523C784.321 862.478 715.334 862.559 646.346 862.745L96.2499 862.837C84.2692 863.111 75.3483 861.374 66.5042 852.815C59.9528 846.474 56.2708 838.412 56.2116 829.25C56.1525 820.099 59.2825 811.613 65.7941 805.068C70.4816 800.355 77.6614 796.18 84.2452 794.872C91.8718 793.357 100.706 794.041 108.453 794.047C108.449 779.069 108.416 764.093 108.337 749.114C108.277 737.717 107.774 726.057 108.82 714.707C111.523 685.369 124.721 657.151 144.777 635.723C163.203 616.036 186.924 603.202 213.5 598.635C220.849 597.373 228.085 597.063 235.523 596.817L235.538 484.385L189.196 523.11C186.463 525.577 182.253 529.903 178.25 529.452C176.248 529.227 173.626 527.553 172.425 525.971C171.76 525.095 171.392 524.126 171.284 523.035C170.847 518.585 171.176 513.791 171.166 509.306C171.146 500.531 171.128 491.756 171.102 482.981C171.081 475.924 171.062 468.87 170.914 461.815C170.785 455.657 170.48 449.581 171.164 443.439C172.394 441.306 174.022 439.621 175.87 438.015C207.764 410.287 240.766 383.602 273.253 356.56C325.896 312.741 378.507 268.865 431.399 225.347C448.695 211.116 465.824 196.685 483.013 182.326C491.928 174.878 500.809 165.217 511.215 159.995Z"/>
	<path fill="#B37C1C" d="M731.151 436.919L771.947 470.079L771.653 509.655C768.975 508.581 766.28 506.173 764.016 504.385C758.696 500.18 753.606 495.723 748.394 491.39C742.612 486.583 736.653 482.005 730.821 477.262L730.935 476.698L731.151 436.919Z"/>
	<path fill="#DA3937" d="M743.975 220.507L803.716 220.507L803.508 254.5L743.438 254.503C744.46 250.848 743.959 246.379 743.962 242.571C743.968 235.216 743.973 227.861 743.975 220.507Z"/>
	<path fill="#FD786C" d="M682.479 220.5L743.975 220.507C743.973 227.861 743.968 235.216 743.962 242.571C743.959 246.379 744.46 250.848 743.438 254.503C730.003 254.048 716.522 254.243 703.079 254.246C699.398 254.246 695.707 254.202 692.027 254.281C689.067 254.345 686.222 254.707 683.365 253.75C681.688 251.523 682.425 246.029 682.428 243.204C682.437 235.636 682.456 228.068 682.479 220.5Z"/>
	<path fill="#558720" d="M788.499 760.526L896.97 760.332L897.029 794.225L788.465 794.378L788.499 760.526Z"/>
	<path fill="#53C5A6" d="M74.3768 833.112C73.4366 827.91 73.444 823.27 76.7075 818.748C79.4959 814.884 83.4205 812.853 88.0625 812.17C96.3477 810.95 105.488 811.984 113.883 811.986C133.395 811.992 152.906 811.994 172.418 811.995C239.999 812.001 307.58 812 375.161 811.998C499.099 811.996 623.037 811.991 746.975 811.988C787.697 811.987 828.418 811.985 869.139 811.985C889.901 811.984 911.033 811.178 931.75 812.101C935.672 812.276 938.914 813.228 942.072 815.686C946.777 819.346 948.353 823.809 949.779 829.346C949.052 832.085 948.303 834.636 946.746 837.05C945.543 834.86 946.287 831.475 945.968 829C945.632 826.395 943.569 823.534 941.482 822.019C937.537 819.157 934.069 819.008 929.396 819.004C722.104 818.868 514.811 818.98 307.519 819.005C253.585 819.012 199.65 819.018 145.716 819.014C133.91 819.014 122.092 819.124 110.286 819.002C104.13 818.938 97.6632 817.696 91.5713 818.839C81.7722 820.678 79.4161 825.537 74.3768 833.112Z"/>
	<path fill="#FEE7A3" d="M743.889 271.485L785.538 271.488L785.016 383.629L742.386 348.895L699.487 313.4L699.478 271.483L743.889 271.485Z"/>
	<path fill="#558720" d="M208.048 617.08C217.192 615.123 226.078 614.394 235.413 614.508L235.512 794.005L126.43 794.138L126.452 761.039C134.609 761.039 142.767 761.03 150.925 761.024C161.43 761.016 171.019 761.427 180.888 757.143C192.388 752.151 201.033 742.426 205.452 730.75L205.679 730.138C207.073 726.47 207.9 722.944 208.204 719.034C209.206 706.154 208.34 692.631 208.33 679.684C208.313 658.853 208.771 637.89 208.048 617.08Z"/>
	<path fill="#9ECB24" d="M788.606 628.475C801.223 638.233 810.973 651.169 813.212 667.32C813.781 671.423 813.068 675.66 813.6 679.75C813.818 681.428 814.704 683.372 815.942 684.555C819.447 687.903 823.836 686.88 828.25 686.83C846.083 686.628 863.37 692.888 876.219 705.481C886.766 715.818 894.106 729.424 896.292 744.085C897.083 749.39 896.912 754.972 896.97 760.332L788.499 760.526L788.606 628.475Z"/>
	<path fill="#9ECB24" d="M208.048 617.08C208.771 637.89 208.313 658.853 208.33 679.684C208.34 692.631 209.206 706.154 208.204 719.034C207.9 722.944 207.073 726.47 205.679 730.138L205.452 730.75C201.033 742.426 192.388 752.151 180.888 757.143C171.019 761.427 161.43 761.016 150.925 761.024C142.767 761.03 134.609 761.039 126.452 761.039C126.454 752.295 126.478 743.55 126.461 734.806C126.45 729.19 126.214 723.469 126.699 717.872C128.039 702.401 132.135 687.085 139.145 673.217C153.346 645.129 178.565 626.708 208.048 617.08Z"/>
	<path fill="#FC9F15" d="M730.41 556.389L730.821 477.262C736.653 482.005 742.612 486.583 748.394 491.39C753.606 495.723 758.696 500.18 764.016 504.385C766.28 506.173 768.975 508.581 771.653 509.655L771.348 794.515L731.038 794.425L730.967 702.528L737.939 702.513L739.062 701.831C741.861 700.07 744.119 698.053 744.78 694.671C745.922 688.829 745.396 682.397 745.331 676.476C745.249 669.025 745.304 661.571 745.313 654.12C745.336 635.5 745.238 616.884 745.116 598.265C745.056 589.12 745.553 579.607 744.864 570.5C744.647 567.628 744.344 564.894 742.585 562.497C739.534 558.342 735.275 557.028 730.41 556.389Z"/>
	<path fill="#9C4A25" d="M512.03 554.482C530.999 556.824 547.827 563.323 559.964 578.796C566.862 587.592 570.161 597.281 571.77 608.232C572.797 615.22 572.055 622.502 572.021 629.546C571.974 639.432 572.16 649.328 572.208 659.215C572.427 704.217 572.016 749.227 572.021 794.23L512.042 794.006L512.03 554.482Z"/>
	<path fill="#262A4F" d="M545.114 668.416L546.617 668.443C549.232 668.633 551.845 669.947 553.467 672.016C554.271 673.041 554.697 673.968 554.955 675.25C555.9 679.943 555.425 685.672 555.461 690.477C555.495 695.107 555.953 700.274 555.41 704.854C554.859 709.499 552.929 711.254 549.397 713.982C548.147 714.021 546.842 714.101 545.602 713.919C543.607 713.627 542.185 712.689 541.095 711.017C540.402 709.954 539.881 709.017 539.638 707.75C538.504 701.83 539.405 695.124 539.395 689.113C539.388 684.412 538.587 678.516 539.765 674.011C540.424 671.492 543.083 669.743 545.114 668.416Z"/>
	<path fill="#CC6B38" d="M451.485 794.263C451.515 751.901 451.821 709.533 451.693 667.171C451.656 655.031 451.527 642.891 451.444 630.751C451.393 623.142 450.763 614.903 452.079 607.41C454.364 594.406 459.167 583.838 467.656 573.704C478.684 560.539 495.634 555.794 512.03 554.482L512.042 794.006L451.485 794.263Z"/>
	<path fill="#FD786C" d="M512.532 179.967C594.672 248.396 676.835 316.798 758.991 385.207C776.755 399.998 794.518 414.791 812.285 429.578C817.596 433.998 822.912 438.411 828.214 442.84C831.676 445.731 835.678 448.538 838.273 452.268L837.995 473.962L512.009 202.896C508.907 204.896 506.136 207.607 503.265 209.938C496.124 215.736 489.124 221.703 482.068 227.602C463.468 243.153 444.756 258.611 426.042 274.03C371.324 319.113 316.956 364.629 262.351 409.849C237.759 430.214 213.559 451.254 188.496 471.019L188.503 450.24C198.138 440.364 210.192 432.063 220.83 423.209C245.15 402.967 269.538 382.803 293.88 362.586C366.934 301.915 439.49 240.649 512.532 179.967Z"/>
	<path fill="#BE963F" d="M253.02 470.795C273.02 453.47 293.672 436.865 314.05 419.986C348.866 391.146 383.689 362.3 418.415 333.352C438.943 316.24 459.68 299.378 480.268 282.337C486.681 277.028 493.072 271.692 499.467 266.361C503.547 262.959 507.498 259.36 511.974 256.478L731.151 436.919L730.935 476.698C728.835 475.377 726.942 473.488 725.022 471.908C720.913 468.528 716.756 465.2 712.625 461.848C698 449.98 683.432 438.042 668.836 426.14C634.54 398.175 600.229 370.228 565.911 342.289C547.846 327.581 529.982 312.547 511.655 298.17C499.905 308.065 488.142 317.942 476.36 327.799C472.997 330.613 469.653 333.451 466.278 336.25C463.927 338.199 461.423 339.984 459.583 342.454L253.213 512.036L253.02 470.795Z"/>
	<path fill="#DA3937" d="M512.009 202.896L837.995 473.962L838.002 503.746L511.761 234.152L188.495 501.127L188.496 471.019C213.559 451.254 237.759 430.214 262.351 409.849C316.956 364.629 371.324 319.113 426.042 274.03C444.756 258.611 463.468 243.153 482.068 227.602C489.124 221.703 496.124 215.736 503.265 209.938C506.136 207.607 508.907 204.896 512.009 202.896Z"/>
	<path fill="#279568" d="M74.3768 833.112C79.4161 825.537 81.7722 820.678 91.5713 818.839C97.6632 817.696 104.13 818.938 110.286 819.002C122.092 819.124 133.91 819.014 145.716 819.014C199.65 819.018 253.585 819.012 307.519 819.005C514.811 818.98 722.104 818.868 929.396 819.004C934.069 819.008 937.537 819.157 941.482 822.019C943.569 823.534 945.632 826.395 945.968 829C946.287 831.475 945.543 834.86 946.746 837.05C945.625 839.468 942.265 842.145 939.879 843.147C937.134 844.299 934.264 844.646 931.313 844.807C924.389 845.186 917.174 844.729 910.219 844.727C894.395 844.724 878.571 844.723 862.747 844.723C814.61 844.721 766.472 844.724 718.335 844.725C571.162 844.728 423.99 844.647 276.817 844.507C233.73 844.466 190.645 844.559 147.558 844.72C129.352 844.788 110.996 845.721 92.8162 845.244C89.4679 845.156 86.6298 844.714 83.5 843.433C78.6072 841.43 76.2895 837.796 74.3768 833.112Z"/>
	<path fill="#FEE7A3" d="M459.583 342.454C464.115 344.237 474.149 347.105 476.054 351.965C476.689 353.583 476.674 355.028 475.865 356.579L475.191 357.688L474.876 358.199C471.528 363.205 463.519 364.281 460.986 370.293C446.957 385.997 436.197 403.997 437.593 425.848C438.895 446.217 447.285 464.63 462.909 478.023C476.077 489.312 493.571 495.778 510.93 495.568C511.604 503.082 511.328 510.709 511.35 518.251C511.369 524.574 511.768 531.208 511.054 537.477C506.331 537.842 501.479 538.067 496.828 538.997C481.764 542.009 467.515 549.837 456.669 560.654C446.456 570.839 439.5 584.661 436.479 598.713C434.02 610.154 434.476 621.985 434.482 633.611C434.488 645.324 434.505 657.037 434.509 668.75C434.522 710.67 434.511 752.59 434.51 794.51L253.01 794.245L253.213 512.036L459.583 342.454Z"/>
	<path fill="#262A4F" d="M390.783 554.262C394.961 554.045 400.521 553.07 404.003 555.857C405.894 557.371 406.695 559.649 406.843 562C407.301 569.258 406.885 576.789 406.883 584.069C406.877 599.062 406.879 614.054 406.884 629.047C406.889 643.363 406.94 657.679 406.993 671.995C407.021 679.584 407.418 687.362 406.949 694.927C406.844 696.624 406.547 698.498 405.292 699.75C403.787 701.252 401.068 702.242 398.964 702.44C395.529 702.765 391.634 702.305 388.155 702.215C381.859 702.054 375.567 701.99 369.269 701.974C345.635 701.917 322.021 702.071 298.39 702.485C295.126 702.524 291.455 702.835 288.239 702.365C285.743 701.999 283.235 700.12 281.88 698.034C280.667 696.165 280.96 692.844 280.908 690.654C280.621 678.652 280.982 666.599 281.082 654.591C281.218 638.206 281.169 621.819 281.211 605.434C281.236 595.899 281.274 586.365 281.308 576.831C281.328 571.347 280.767 565.477 281.918 560.102C283.771 557.619 285.631 556.148 288.212 554.527L390.783 554.262Z"/>
	<path fill="#46CBCE" d="M352.325 675.005L388.775 675.039L388.919 685.738L352.119 685.49L352.325 675.005Z"/>
	<path fill="#46CBCE" d="M303.184 675.572L337.537 675.508L337.338 685.493L297.996 685.507L297.911 675.868C299.71 675.879 301.408 675.885 303.184 675.572Z"/>
	<path fill="#90E0ED" d="M352.463 670.861L352.831 670.599C359.072 667.202 363.894 661.015 369.546 656.704C376.228 651.606 382.467 644.127 388.462 638.165L389.001 639.101L388.775 675.039L352.325 675.005L352.463 670.861Z"/>
	<path fill="#BDF0F6" d="M336.441 571.454L337.924 572.25L337.992 579.729L303.361 612.242L303.012 612.37C301.148 612.689 299.215 612.935 297.538 612.094L297.475 571.711L336.441 571.454Z"/>
	<path fill="#474B73" d="M336.441 571.454L352.877 571.473L388.87 571.716L389.046 581.126L389.009 611.986L388.981 622.935L389.001 639.101L388.462 638.165C382.467 644.127 376.228 651.606 369.546 656.704C363.894 661.015 359.072 667.202 352.831 670.599L352.463 670.861L352.325 675.005L352.119 685.49L337.338 685.493L337.537 675.508L303.184 675.572C301.408 675.885 299.71 675.879 297.911 675.868L297.461 636.999L297.457 622.508L297.538 612.094C299.215 612.935 301.148 612.689 303.012 612.37L303.361 612.242L337.992 579.729L337.924 572.25L336.441 571.454Z"/>
	<path fill="#46CBCE" d="M355.849 611.965L389.009 611.986L388.981 622.935C385.129 622.3 380.793 622.667 376.889 622.668C368.716 622.672 360.542 622.757 352.37 622.826L352.341 612.224L355.849 611.965Z"/>
	<path fill="#46CBCE" d="M303.361 612.242L337.25 611.858L337.893 610.386L337.97 622.518L297.457 622.508L297.538 612.094C299.215 612.935 301.148 612.689 303.012 612.37L303.361 612.242Z"/>
	<path fill="#90E0ED" d="M303.361 612.242L337.992 579.729L337.893 610.386L337.25 611.858L303.361 612.242Z"/>
	<path fill="#BDF0F6" d="M351.975 636.988C359.982 636.975 367.994 637.014 376 636.925C378.839 636.894 384.662 636.062 387.25 637.215C387.719 637.424 388.058 637.848 388.462 638.165C382.467 644.127 376.228 651.606 369.546 656.704C363.894 661.015 359.072 667.202 352.831 670.599L352.463 670.861L351.975 636.988Z"/>
	<path fill="#BDF0F6" d="M352.877 571.473L388.87 571.716L389.046 581.126L389.009 611.986L355.849 611.965L352.341 612.224C352.176 601.719 352.095 591.216 352.054 580.71C352.046 578.711 351.441 574.271 352.025 572.5C352.164 572.078 352.593 571.815 352.877 571.473Z"/>
	<path fill="#90E0ED" d="M355.849 611.965C359.118 607.777 363.423 604.428 367.263 600.783C374.303 594.101 381.31 587.004 389.046 581.126L389.009 611.986L355.849 611.965Z"/>
	<path fill="#BDF0F6" d="M297.461 636.999L337.518 636.994L337.619 645.321C338.001 651.041 337.909 656.773 337.898 662.502C337.889 666.809 338.084 671.233 337.537 675.508L303.184 675.572C301.408 675.885 299.71 675.879 297.911 675.868L297.461 636.999Z"/>
	<path fill="#90E0ED" d="M337.619 645.321C338.001 651.041 337.909 656.773 337.898 662.502C337.889 666.809 338.084 671.233 337.537 675.508L303.184 675.572C306.173 672.95 309.403 670.632 312.325 667.93C317.141 663.478 321.88 658.913 326.63 654.388C330.016 651.162 333.408 647.449 337.619 645.321Z"/>
	<path fill="#FEC12C" d="M511.655 298.17C529.982 312.547 547.846 327.581 565.911 342.289C600.229 370.228 634.54 398.175 668.836 426.14C683.432 438.042 698 449.98 712.625 461.848C716.756 465.2 720.913 468.528 725.022 471.908C726.942 473.488 728.835 475.377 730.935 476.698L730.821 477.262L730.41 556.389C735.275 557.028 739.534 558.342 742.585 562.497C744.344 564.894 744.647 567.628 744.864 570.5C745.553 579.607 745.056 589.12 745.116 598.265C745.238 616.884 745.336 635.5 745.313 654.12C745.304 661.571 745.249 669.025 745.331 676.476C745.396 682.397 745.922 688.829 744.78 694.671C744.119 698.053 741.861 700.07 739.062 701.831L737.939 702.513L730.967 702.528L731.038 794.425L589.442 794C589.485 751.394 589.405 708.788 589.45 666.183C589.463 653.899 589.479 641.616 589.477 629.333C589.476 620.074 589.924 610.447 588.244 601.301C585.939 588.745 580.423 576.187 572.151 566.402C562.272 554.716 549.163 545.328 534.342 541.088C526.727 538.91 518.918 538.125 511.054 537.477C511.768 531.208 511.369 524.574 511.35 518.251C511.328 510.709 511.604 503.082 510.93 495.568C493.571 495.778 476.077 489.312 462.909 478.023C447.285 464.63 438.895 446.217 437.593 425.848C436.197 403.997 446.957 385.997 460.986 370.293C463.519 364.281 471.528 363.205 474.876 358.199L475.191 357.688L475.865 356.579C476.674 355.028 476.689 353.583 476.054 351.965C474.149 347.105 464.115 344.237 459.583 342.454C461.423 339.984 463.927 338.199 466.278 336.25C469.653 333.451 472.997 330.613 476.36 327.799C488.142 317.942 499.905 308.065 511.655 298.17Z"/>
	<path fill="#262A4F" d="M460.986 370.293C474.25 360.327 485.973 353.368 502.75 351.417C507.395 350.876 512.241 350.483 516.889 351.131C522.231 351.876 527.314 352.549 532.518 354.038C547.563 358.345 562.05 367.756 571.533 380.318C583.3 395.907 587.605 416.731 584.731 435.876C581.982 454.195 571.246 470.893 556.411 481.812C542.679 491.919 527.643 495.043 510.93 495.568C493.571 495.778 476.077 489.312 462.909 478.023C447.285 464.63 438.895 446.217 437.593 425.848C436.197 403.997 446.957 385.997 460.986 370.293Z"/>
	<path fill="#90E0ED" d="M518.483 431L535.598 431.01C531.788 434.928 527.848 438.751 524.089 442.712C522.155 444.751 520.925 447.047 518.558 448.689L518.483 431Z"/>
	<path fill="#90E0ED" d="M468.74 416.438C469.785 416.344 471.424 416.373 472.351 415.885C474.826 414.582 477.922 410.594 479.999 408.547C485.044 403.574 490.165 398.71 495.267 393.802C498.429 390.759 501.513 387.435 505.025 384.797L504.993 416.513L468.74 416.438Z"/>
	<path fill="#90E0ED" d="M476.267 466.802C487.152 459.983 494.019 447.712 505.021 441.235L504.955 478.837C494.624 475.905 485.051 473.396 476.267 466.802Z"/>
	<path fill="#BDF0F6" d="M455.117 430.777L504.912 430.496L505.021 441.235C494.019 447.712 487.152 459.983 476.267 466.802L475.87 466.54C464.179 458.543 457.763 444.212 455.117 430.777Z"/>
	<path fill="#BDF0F6" d="M455.716 416.495C456.244 408.384 459.406 400.742 463.788 393.973C473.51 378.953 487.946 371.69 504.917 368.12L505.025 384.797C501.513 387.435 498.429 390.759 495.267 393.802C490.165 398.71 485.044 403.574 479.999 408.547C477.922 410.594 474.826 414.582 472.351 415.885C471.424 416.373 469.785 416.344 468.74 416.438L455.716 416.495Z"/>
	<path fill="#46CBCE" d="M535.598 431.01L568.586 431.014C564.282 448.37 557.136 461.327 541.392 470.743C534.321 474.973 526.625 477.195 518.508 478.256L518.558 448.689C520.925 447.047 522.155 444.751 524.089 442.712C527.848 438.751 531.788 434.928 535.598 431.01Z"/>
	<path fill="#46CBCE" d="M518.479 368.258C527.016 369.831 535.38 372.689 542.687 377.417C557.294 386.87 564.289 399.53 567.83 416.213C563.974 417.373 557.585 416.529 553.483 416.529C541.817 416.531 530.151 416.518 518.485 416.503L518.479 368.258Z"/>
	<path fill="#262A4F" d="M730.41 556.389C735.275 557.028 739.534 558.342 742.585 562.497C744.344 564.894 744.647 567.628 744.864 570.5C745.553 579.607 745.056 589.12 745.116 598.265C745.238 616.884 745.336 635.5 745.313 654.12C745.304 661.571 745.249 669.025 745.331 676.476C745.396 682.397 745.922 688.829 744.78 694.671C744.119 698.053 741.861 700.07 739.062 701.831L737.939 702.513L730.967 702.528C705.93 702.039 680.891 702.494 655.848 702.508C649.126 702.512 642.403 702.512 635.681 702.502C632.4 702.497 628.836 702.765 625.584 702.403C623.396 702.16 621.321 701.304 619.686 699.824C617.626 697.96 617.262 695.155 617.069 692.532C616.573 685.808 617.093 678.779 617.16 672.022C617.276 660.4 617.257 648.781 617.236 637.158C617.21 622.537 617.192 607.916 617.125 593.295C617.082 583.925 616.698 574.395 617.375 565.045C617.527 562.947 617.694 561.202 619.186 559.594C620.912 557.734 623.061 556.933 625.532 556.651C629.188 556.235 633.016 556.658 636.696 556.723C643.028 556.834 649.374 556.764 655.707 556.768C680.59 556.784 705.533 556.962 730.41 556.389Z"/>
	<path fill="#46CBCE" d="M637.868 674.938L675.013 674.991L675.027 685.502L633.977 685.211L633.96 675.487L637.868 674.938Z"/>
	<path fill="#46CBCE" d="M713.935 573.991L728.035 573.991L728.082 623.049L714.009 623.023L714.016 595.249L713.935 573.991Z"/>
	<path fill="#BDF0F6" d="M633.96 573.984L675.033 573.985L674.955 577.987C666.36 587.662 656.94 596.665 647.793 605.822C643.903 609.717 638.935 616.129 634.052 618.591L633.96 573.984Z"/>
	<path fill="#BDF0F6" d="M633.955 637.838C643.011 637.835 652.074 637.894 661.129 637.788C664.553 637.748 671.965 636.513 674.824 638.17L675.302 639.478L675.013 674.991L637.868 674.938L633.96 675.487L633.955 637.838Z"/>
	<path fill="#90E0ED" d="M637.868 674.938C645.084 668.034 652.619 661.413 659.75 654.425C664.638 649.636 669.656 643.245 675.302 639.478L675.013 674.991L637.868 674.938Z"/>
	<path fill="#474B73" d="M675.033 573.985L688.914 573.966L713.935 573.991L714.016 595.249L714.009 623.023L728.082 623.049L728.185 637.713L728.386 685.165L689.046 685.432L675.027 685.502L675.013 674.991L675.302 639.478L674.824 638.17C671.965 636.513 664.553 637.748 661.129 637.788C652.074 637.894 643.011 637.835 633.955 637.838L633.991 623.271L634.052 618.591C638.935 616.129 643.903 609.717 647.793 605.822C656.94 596.665 666.36 587.662 674.955 577.987L675.033 573.985Z"/>
	<path fill="#BDF0F6" d="M688.806 637.998L702.911 637.874L713.75 638.002C714.395 639.352 714.049 641.171 713.978 642.636C708.493 647.002 703.42 651.932 698.514 656.933C695.457 660.048 692.52 663.638 688.987 666.197L688.806 637.998Z"/>
	<path fill="#90E0ED" d="M634.052 618.591C638.935 616.129 643.903 609.717 647.793 605.822C656.94 596.665 666.36 587.662 674.955 577.987L675.036 623.017L633.991 623.271L634.052 618.591Z"/>
	<path fill="#BDF0F6" d="M688.914 573.966L713.935 573.991L714.016 595.249L714.009 623.023L688.989 623.042L688.99 617.504L688.914 573.966Z"/>
	<path fill="#90E0ED" d="M688.99 617.504C693.187 615.142 696.757 611.369 700.244 608.096C704.829 603.792 709.515 599.655 714.016 595.249L714.009 623.023L688.989 623.042L688.99 617.504Z"/>
	<path fill="#46CBCE" d="M702.911 637.874L728.185 637.713L728.386 685.165L689.046 685.432L688.929 674.479L688.987 666.197C692.52 663.638 695.457 660.048 698.514 656.933C703.42 651.932 708.493 647.002 713.978 642.636C714.049 641.171 714.395 639.352 713.75 638.002L702.911 637.874Z"/>
	<path fill="#90E0ED" d="M688.987 666.197C692.52 663.638 695.457 660.048 698.514 656.933C703.42 651.932 708.493 647.002 713.978 642.636L713.545 674.49L688.929 674.479L688.987 666.197Z"/>
</svg>
