<?xml version="1.0" encoding="utf-8" ?>
<svg xmlns="http://www.w3.org/2000/svg" xmlns:xlink="http://www.w3.org/1999/xlink" width="920" height="920">
	<path fill="#FAA52F" transform="scale(0.898438 0.898438)" d="M134.148 27.2319L884.622 27.2987C913.899 27.007 942.088 36.4917 963.235 57.2727C979.618 73.3722 990.246 93.6713 993.782 116.391C995.424 126.943 995.015 137.845 995.037 148.497C995.067 162.997 995.028 177.498 995.008 191.999C994.94 241.261 994.891 290.523 994.901 339.786C994.939 521.658 993.994 703.582 995.167 885.448C995.356 914.793 985.042 942.419 964.146 963.394C944.5 983.114 918.389 992.331 890.907 992.482C712.932 992.564 534.959 992.225 356.984 992.393C302.902 992.444 248.819 992.419 194.737 992.517C179.443 992.544 164.146 992.533 148.852 992.644C138.977 992.715 128.969 993.434 119.141 992.173C98.7012 989.551 78.0012 980.3 62.75 966.356C44.2751 949.465 30.4236 924.703 29.5515 899.25C28.8888 879.906 29.4474 860.398 29.4494 841.035C29.4533 803.863 29.4535 766.691 29.4549 729.519C29.4591 616.672 29.4684 503.825 29.4742 390.977C29.4774 329.551 29.4813 268.124 29.4766 206.697C29.4752 188.882 29.4892 171.066 29.4643 153.25C29.448 141.523 28.7595 129.824 30.3057 118.16C33.0598 97.3851 42.7093 76.6787 56.9917 61.3596C77.0312 39.8654 105.032 28.308 134.148 27.2319Z"/>
	<path fill="#FECD51" transform="scale(0.898438 0.898438)" d="M748.006 230.813C751.196 232.651 753.67 235.171 756.382 237.622C760.98 241.776 765.351 246.063 769.708 250.466C812.125 293.323 844.054 349.382 859.672 407.588C885.844 505.125 874.203 603.226 823.672 690.866C811.069 712.725 795.211 733.5 778.582 752.431C773.882 757.782 768.786 762.792 763.981 768.052C759.044 773.457 754.574 779.992 748.75 784.455L747.986 784.25L747.589 780.244L748.006 230.813Z"/>
	<path fill="#FECD51" transform="scale(0.898438 0.898438)" d="M277.03 782.758C264.224 770.532 251.104 758.646 239.564 745.18C229.322 733.227 220.474 720.012 211.727 706.961C170.472 645.404 149.273 568.511 151.027 494.603C151.567 471.851 154.69 449.183 159.102 426.893C163.196 406.214 169.912 385.772 177.922 366.307C194.517 325.983 217.043 290.276 245.474 257.255C251.254 250.541 257.26 244.321 263.557 238.093C268.03 233.668 272.272 229.338 277.529 225.822L277.368 703.737C276.828 706.543 277.064 709.53 277.061 712.382C277.055 717.346 277.048 722.309 277.045 727.273C277.031 745.768 277.029 764.263 277.03 782.758Z"/>
	<path fill="#0B204E" transform="scale(0.898438 0.898438)" d="M277.529 225.822C277.414 215.485 276.745 204.704 277.873 194.427C279.55 179.143 285.647 164.368 296.441 153.242C311.078 138.157 330.442 129.994 351.43 129.754C375.512 129.479 399.649 129.969 423.736 130.001C474.248 130.066 524.76 130.026 575.271 130.02C597.578 130.017 619.886 130.017 642.193 129.997C656.603 129.984 671.457 128.688 685.697 131.385C700.614 134.21 714.998 142.334 725.762 152.978C741.523 168.564 748.355 189.243 748.337 211.05L748.006 230.813L747.589 780.244C747.096 794.459 748.67 809.052 747.317 823.206C745.547 841.718 737.227 857.703 724.34 870.895C709.602 885.98 690.313 892.491 669.521 892.704C649.013 892.914 628.458 892.456 607.94 892.491C553.077 892.584 498.216 892.745 443.352 892.744C421.628 892.743 399.904 892.74 378.18 892.731C365.759 892.726 352.067 893.839 339.868 891.629C323.802 888.72 309.884 881.552 298.267 870.077C289.134 861.056 282.032 848.499 279.125 836C277.128 827.416 277.294 818.822 277.351 810.077C277.405 801.786 277.443 793.494 277.448 785.203C277.467 758.049 277.55 730.89 277.368 703.737L277.529 225.822Z"/>
	<path fill="#244678" transform="scale(0.898438 0.898438)" d="M659.645 143.229C676.589 142.546 692.483 145.77 706.724 155.302C720.742 164.684 729.233 179.789 732.645 196C734.023 202.546 733.958 209.249 733.983 215.908C734.01 223.321 734.007 230.735 734.005 238.149C733.997 261.456 734.017 284.762 734.026 308.069C734.066 403.909 733.755 499.745 733.596 595.585C733.51 646.997 733.782 698.413 733.829 749.826C733.843 764.139 733.877 778.453 733.895 792.766C733.907 802.122 734.399 811.84 733.177 821.124C731.814 831.469 729.01 841.566 723.052 850.27C713.244 864.598 699.693 873.926 682.554 877.188C671.661 879.262 659.274 878.214 648.176 878.208C628.298 878.198 608.422 878.121 588.544 878.064C543.486 877.935 498.426 877.995 453.367 877.992C423.902 877.99 394.408 877.718 364.947 878.179C359.341 878.275 353.309 878.486 347.734 877.784C335.286 876.216 324.736 870.952 314.5 864.007C313.532 863.35 312.627 862.734 311.75 861.952C299.583 851.1 291.99 834.949 291.077 818.654C290.279 804.393 290.606 789.93 290.772 775.655C291.016 754.541 291.397 733.419 291.333 712.304C291.08 629.174 290.999 546.049 291.017 462.919C291.029 403.693 291.362 344.471 291.435 285.246C291.457 267.038 291.516 248.829 291.467 230.621C291.44 220.27 290.712 209.55 291.763 199.256C293.095 186.205 298.155 172.989 307.116 163.26C315.282 154.392 328.213 147.418 340.025 145.153C350.891 143.068 362.181 143.96 373.193 143.92C389.453 143.861 405.713 143.742 421.973 143.647C474.429 143.341 526.89 143.505 579.346 143.508C606.058 143.51 632.953 144.157 659.645 143.229Z"/>
	<path fill="#0B204E" transform="scale(0.898438 0.898438)" d="M358.637 158.212C363.816 157.73 369.271 157.897 374.483 157.827C387.583 157.652 400.69 157.979 413.791 157.993C450.183 158.031 486.575 158.002 522.967 157.999C557.695 157.996 592.419 157.976 627.146 158.166C636.251 158.216 645.359 158.04 654.464 158.02C660.064 158.008 665.682 157.824 671.25 158.487C679.151 159.427 688.699 163.509 695.288 167.907C707.767 176.236 717.147 190.036 720.063 204.813L720.185 205.451C722.045 214.818 721.249 224.417 721.135 233.893C721.015 243.761 721.003 253.631 720.996 263.5C720.966 307.244 720.979 350.989 720.984 394.734C720.995 487.203 721.014 579.671 720.991 672.14C720.983 701.71 720.959 731.281 720.979 760.851C720.991 776.726 721.608 792.75 720.903 808.609C720.52 817.219 718.201 825.9 713.942 833.421C705.808 847.783 692.463 857.67 676.607 861.936L675.75 862.161C672.193 863.119 668.532 862.98 664.875 863.012C639.737 863.576 614.538 863.211 589.391 863.212C545.483 863.214 501.575 863.213 457.667 863.216C434.111 863.217 410.555 863.22 386.999 863.209C379.751 863.205 372.506 863.094 365.259 863.076C360.744 863.065 355.998 863.379 351.529 862.859C341.912 861.739 333.512 858.185 325.5 852.905C320.544 849.639 316.41 844.901 313.015 840.076C307.492 832.223 303.714 822.097 303.058 812.528C301.924 795.982 302.622 778.85 302.719 762.252C302.877 735.284 302.971 708.317 302.997 681.349C303.083 593.029 303.021 504.709 303.011 416.389C303.005 366.4 303.03 316.41 302.948 266.421C302.926 252.955 302.919 239.489 302.849 226.024C302.811 218.634 302.013 210.692 303.292 203.391C304.779 194.893 307.656 187.215 312.584 180.081C320.057 169.264 333.298 161.9 346 159.389C350.204 158.557 354.368 158.408 358.637 158.212Z"/>
	<path fill="#D9DDE7" transform="scale(0.898438 0.898438)" d="M315.078 221.497C314.881 207.511 315.849 194.86 326.194 184.25C332.906 177.365 342.196 172.8 351.75 171.662C358.641 170.841 365.783 171.452 372.72 171.473C382.554 171.503 392.387 171.512 402.221 171.523L391.651 177.755C383.344 183.166 377.811 191.983 375.777 201.629C374.446 207.938 374.417 215.044 374.44 221.506L315.078 221.497Z"/>
	<path fill="#3EBDBE" transform="scale(0.898438 0.898438)" d="M315.506 782.006L374.536 781.999C374.51 789.386 374.488 796.773 374.484 804.16C374.482 808.939 374.249 813.762 374.927 818.5L375.051 819.42C376.377 828.635 382.375 837.969 389.83 843.452C393.275 845.987 397.479 847.869 401.579 849.045L360.702 849.487C347.248 849.416 335.876 844.371 326.507 834.75C312.852 820.728 315.139 799.959 315.506 782.006Z"/>
	<path fill="#FDF5C5" transform="scale(0.898438 0.898438)" d="M402.221 171.523C424.474 170.418 446.883 170.961 469.166 170.974C504.641 170.994 540.116 170.986 575.592 170.988C595.46 170.989 615.328 170.992 635.197 170.979C645.614 170.972 656.61 169.967 666.929 171.488C677.087 172.985 685.773 177.282 693.374 184.136C703.738 193.481 707.978 206.632 708.492 220.237L708.513 221.508L374.44 221.506C374.417 215.044 374.446 207.938 375.777 201.629C377.811 191.983 383.344 183.166 391.651 177.755L402.221 171.523Z"/>
	<path fill="#0B204E" transform="scale(0.898438 0.898438)" d="M572.117 187.503C573.443 187.455 574.852 187.363 576.149 187.691C578.512 188.289 580.872 190.156 582.008 192.308C583.02 194.225 583.262 196.427 582.637 198.5C581.688 201.65 579.621 202.918 576.862 204.445L572.25 204.406C570.396 204.156 568.594 202.731 567.529 201.24C566.087 199.22 565.379 196.17 566.014 193.75C566.85 190.564 569.403 188.948 572.117 187.503Z"/>
	<path fill="#0B204E" transform="scale(0.898438 0.898438)" d="M449.299 187.491L452.303 187.786C454.416 188.15 456.25 189.026 457.443 190.871C458.9 193.124 459.622 195.612 458.834 198.25C457.678 202.124 455.132 203.756 451.773 205.482L450.45 205.314C447.928 204.852 445.043 203.472 443.634 201.235C442.379 199.244 441.969 196.533 442.494 194.25C443.316 190.675 446.389 189.157 449.299 187.491Z"/>
	<path fill="#0B204E" transform="scale(0.898438 0.898438)" d="M481.204 188.742L546.138 188.502C547.967 190.141 550.055 191.795 550.581 194.325C550.952 196.109 550.771 198.987 549.697 200.474C548.175 202.585 546.104 203.41 543.618 203.797C528.913 204.153 514.178 204.011 499.469 204.004C494.414 204.002 489.358 203.995 484.303 203.973C482.146 203.964 478.993 204.153 477.18 202.82C475.571 201.637 474.614 199.159 474.25 197.27C473.885 195.373 473.966 193.46 475.176 191.858C476.67 189.882 478.867 189.157 481.204 188.742Z"/>
	<path fill="#FDF5C5" transform="scale(0.898438 0.898438)" d="M374.536 781.999L707.524 780.994C707.536 787.205 707.545 793.415 707.54 799.626C707.534 805.439 707.648 810.909 706.222 816.608C704.385 823.945 700.226 830.984 694.913 836.32C686.391 844.88 675.372 849.792 663.25 849.702L401.579 849.045C397.479 847.869 393.275 845.987 389.83 843.452C382.375 837.969 376.377 828.635 375.051 819.42L374.927 818.5C374.249 813.762 374.482 808.939 374.484 804.16C374.488 796.773 374.51 789.386 374.536 781.999Z"/>
	<path fill="#244678" transform="scale(0.898438 0.898438)" d="M508.091 789.057C511.122 788.525 514.763 788.837 517.75 789.52C524.887 791.152 531.214 796.055 534.804 802.401C538.162 808.337 539.108 816.189 537.269 822.752L537.049 823.5C536.319 826.047 535.353 828.486 533.96 830.75C530.06 837.087 522.717 840.798 515.691 842.484C509.961 842.559 505.395 842.538 500.145 839.845C493.499 836.435 488.513 830.767 486.389 823.57C484.222 816.226 485.622 807.932 489.487 801.39C493.506 794.587 500.73 791.028 508.091 789.057Z"/>
	<path fill="#3EBDBE" transform="scale(0.898438 0.898438)" d="M375.62 234.993L708.007 234.753L707.951 765.513L376.344 764.668C375.775 764.44 375.475 764.148 375.017 763.75L375.049 744.349C383.089 742.225 391.9 743.005 400.169 743.003C410.227 743.002 420.285 742.999 430.344 742.997C481.34 742.985 532.337 742.977 583.334 742.981C596.585 742.982 609.846 742.876 623.096 743.012C631.255 743.096 639.229 744.082 647.368 742.9C651.505 742.298 654.981 740.211 657.325 736.711C661 731.227 659.872 723.179 658.818 717.096C660.973 716.608 663.252 715.891 665.25 714.934C671.161 712.104 676.235 706.482 678.355 700.282L678.613 699.5C679.648 696.541 679.816 693.615 679.874 690.5C680.383 663.39 679.894 636.208 679.848 609.091C679.772 564.318 679.86 519.544 679.895 474.771C679.916 448.278 679.936 421.785 679.946 395.293C679.948 387.233 679.95 379.173 679.949 371.113C679.948 366.65 680.205 362.008 679.761 357.568C679.314 353.097 677.448 349.138 674.322 345.925C670.816 342.322 666.763 340.107 661.716 339.576C658.72 339.26 655.601 339.871 652.596 339.965C648.151 340.104 643.676 340.016 639.228 340.019C618.285 340.034 597.342 340.003 576.399 340.057C509.398 340.233 442.388 340.519 375.388 340.038C374.997 336.173 375.314 332.028 375.336 328.133C375.378 320.77 375.401 313.407 375.43 306.044C375.52 282.36 375.566 258.677 375.62 234.993Z"/>
	<path fill="#0B204E" transform="scale(0.898438 0.898438)" d="M315.403 235.006L375.62 234.993C375.566 258.677 375.52 282.36 375.43 306.044C375.401 313.407 375.378 320.77 375.336 328.133C375.314 332.028 374.997 336.173 375.388 340.038C442.388 340.519 509.398 340.233 576.399 340.057C597.342 340.003 618.285 340.034 639.228 340.019C643.676 340.016 648.151 340.104 652.596 339.965C655.601 339.871 658.72 339.26 661.716 339.576C666.763 340.107 670.816 342.322 674.322 345.925C677.448 349.138 679.314 353.097 679.761 357.568C680.205 362.008 679.948 366.65 679.949 371.113C679.95 379.173 679.948 387.233 679.946 395.293C679.936 421.785 679.916 448.278 679.895 474.771C679.86 519.544 679.772 564.318 679.848 609.091C679.894 636.208 680.383 663.39 679.874 690.5C679.816 693.615 679.648 696.541 678.613 699.5L678.355 700.282C676.235 706.482 671.161 712.104 665.25 714.934C663.252 715.891 660.973 716.608 658.818 717.096C659.872 723.179 661 731.227 657.325 736.711C654.981 740.211 651.505 742.298 647.368 742.9C639.229 744.082 631.255 743.096 623.096 743.012C609.846 742.876 596.585 742.982 583.334 742.981C532.337 742.977 481.34 742.985 430.344 742.997C420.285 742.999 410.227 743.002 400.169 743.003C391.9 743.005 383.089 742.225 375.049 744.349L375.017 763.75C375.475 764.148 375.775 764.44 376.344 764.668C369.289 765.466 361.845 765.01 354.743 765.015C341.671 765.024 328.6 765.022 315.528 765.017L315.403 235.006Z"/>
	<path fill="#DE444F" transform="scale(0.898438 0.898438)" d="M361.173 354.183L397.987 354.256C397.864 362.138 397.66 369.284 403.6 375.401C409.726 381.709 417.046 381.988 425.253 382.01L665.509 382.027L665.512 402.524L361.293 402.001L361.173 354.183Z"/>
	<path fill="#EC9D95" transform="scale(0.898438 0.898438)" d="M397.987 354.256C456.548 353.667 515.099 353.718 573.662 353.738C593.155 353.745 612.646 353.935 632.137 353.97C641.376 353.987 650.732 353.294 659.953 353.953C661.549 354.067 662.335 354.153 663.521 355.25C665.951 357.497 665.535 359.976 665.549 363.008L665.509 382.027L425.253 382.01C417.046 381.988 409.726 381.709 403.6 375.401C397.66 369.284 397.864 362.138 397.987 354.256Z"/>
	<path fill="#D9DDE7" transform="scale(0.898438 0.898438)" d="M361.021 416.731C432.202 416.844 503.389 416.612 574.571 416.609C595.138 416.609 615.705 416.609 636.272 416.615C645.725 416.618 656.17 415.731 665.52 416.938L399.998 417.171C400.022 424.507 399.193 433.202 400.8 440.309C393.465 443.943 387.935 448.885 385.213 456.802L384.504 459.25C382.504 466.779 383.484 473.947 387.402 480.676C390.567 486.111 394.867 489.423 400.101 492.722L400.129 518.994C397.247 519.061 394.401 519.049 391.575 519.684C388.87 521.682 386.429 523.947 385.605 527.36C384.968 529.998 386.024 532.82 387.638 534.891C389.116 536.787 390.994 538.198 393.25 539.003L393.73 539.177C395.657 539.807 398.057 539.566 400.068 539.535C400.059 545.063 399.098 553.096 400.742 558.25L401.399 558.837C394.465 562.212 388.819 567.821 386.26 575.172C383.737 582.42 384.767 590.741 388.143 597.515C390.973 603.195 395.282 606.677 400.716 609.596C399.719 613.36 400.018 617.435 400.016 621.3C400.013 625.281 399.721 629.896 400.937 633.748C394.213 637.202 388.7 643.143 386.414 650.422C384.08 657.855 384.709 665.526 388.393 672.406C391.081 677.424 395.678 681.2 400.504 684.055C399.129 689.163 400.073 696.926 400.088 702.345C406.809 702.334 414.464 701.591 421.067 702.577L370.912 703.254C366.124 703.173 364.694 701.599 361.576 698.331L361.021 416.731Z"/>
	<path fill="#1F9793" transform="scale(0.898438 0.898438)" d="M315.403 235.006L375.62 234.993C375.566 258.677 375.52 282.36 375.43 306.044C375.401 313.407 375.378 320.77 375.336 328.133C375.314 332.028 374.997 336.173 375.388 340.038C367.222 340.003 357.731 338.58 351.369 344.812C345.984 350.088 346.045 356.115 346.049 363.115C346.1 439.705 346.048 516.294 346.023 592.884C346.016 616.241 346.007 639.598 346.06 662.955C346.077 670.462 346.094 677.97 346.169 685.477C346.212 689.757 346.048 694.205 346.578 698.45C347.144 702.993 349.05 706.969 352.274 710.217C359.801 717.799 371.727 717.785 381.75 717.621L658.818 717.096C659.872 723.179 661 731.227 657.325 736.711C654.981 740.211 651.505 742.298 647.368 742.9C639.229 744.082 631.255 743.096 623.096 743.012C609.846 742.876 596.585 742.982 583.334 742.981C532.337 742.977 481.34 742.985 430.344 742.997C420.285 742.999 410.227 743.002 400.169 743.003C391.9 743.005 383.089 742.225 375.049 744.349L375.017 763.75C375.475 764.148 375.775 764.44 376.344 764.668C369.289 765.466 361.845 765.01 354.743 765.015C341.671 765.024 328.6 765.022 315.528 765.017L315.403 235.006Z"/>
	<path fill="#FEFEFE" transform="scale(0.898438 0.898438)" d="M665.52 416.938C665.508 481.42 665.496 545.902 665.492 610.385C665.491 628.421 665.449 646.458 665.534 664.495C665.578 673.85 666.519 683.703 665.382 693C665.084 695.431 663.574 697.604 661.902 699.319C660.759 700.491 659.494 701.552 658.153 702.488L421.067 702.577C414.464 701.591 406.809 702.334 400.088 702.345C400.073 696.926 399.129 689.163 400.504 684.055C395.678 681.2 391.081 677.424 388.393 672.406C384.709 665.526 384.08 657.855 386.414 650.422C388.7 643.143 394.213 637.202 400.937 633.748C399.721 629.896 400.013 625.281 400.016 621.3C400.018 617.435 399.719 613.36 400.716 609.596C395.282 606.677 390.973 603.195 388.143 597.515C384.767 590.741 383.737 582.42 386.26 575.172C388.819 567.821 394.465 562.212 401.399 558.837L400.742 558.25C399.098 553.096 400.059 545.063 400.068 539.535C398.057 539.566 395.657 539.807 393.73 539.177L393.25 539.003C390.994 538.198 389.116 536.787 387.638 534.891C386.024 532.82 384.968 529.998 385.605 527.36C386.429 523.947 388.87 521.682 391.575 519.684C394.401 519.049 397.247 519.061 400.129 518.994L400.101 492.722C394.867 489.423 390.567 486.111 387.402 480.676C383.484 473.947 382.504 466.779 384.504 459.25L385.213 456.802C387.935 448.885 393.465 443.943 400.8 440.309C399.193 433.202 400.022 424.507 399.998 417.171L665.52 416.938Z"/>
	<path fill="#DE444F" transform="scale(0.898438 0.898438)" d="M400.937 633.748C410.174 631.012 418.598 630.003 427.493 634.796C434.139 638.377 439.066 644.402 441.077 651.688C442.987 658.607 441.913 667.079 438.282 673.228C434.373 679.848 428.147 684.831 420.625 686.556C413.322 688.231 407.326 686.763 400.504 684.055C395.678 681.2 391.081 677.424 388.393 672.406C384.709 665.526 384.08 657.855 386.414 650.422C388.7 643.143 394.213 637.202 400.937 633.748Z"/>
	<path fill="#FEFEFE" transform="scale(0.898438 0.898438)" d="M410.249 643.514C412.601 643.442 414.979 643.32 417.25 644.055C421.91 645.564 425.915 649.298 427.931 653.75C429.537 657.296 429.199 662.173 427.838 665.75C425.926 670.775 421.832 672.662 417.216 674.564C414.148 675.061 411.211 675.257 408.229 674.196C404.414 672.839 401.466 669.923 399.767 666.262C397.866 662.166 397.417 657.515 399.059 653.25C401.162 647.79 405.137 645.585 410.249 643.514Z"/>
	<path fill="#DE444F" transform="scale(0.898438 0.898438)" d="M401.399 558.837C406.846 557.106 411.975 555.523 417.75 556.345L418.58 556.459C425.847 557.55 432.716 562.463 436.932 568.345C441.248 574.369 442.746 581.65 441.515 588.943C440.21 596.675 435.472 603.074 429.138 607.489C423.191 611.633 416.214 613.249 409.082 611.903L400.716 609.596C395.282 606.677 390.973 603.195 388.143 597.515C384.767 590.741 383.737 582.42 386.26 575.172C388.819 567.821 394.465 562.212 401.399 558.837Z"/>
	<path fill="#FEFEFE" transform="scale(0.898438 0.898438)" d="M412.077 568.167C415.321 568.31 418.023 568.655 420.948 570.254C424.858 572.392 427.674 576.833 428.854 581.003C429.956 584.895 429.096 589.069 427.045 592.527C424.793 596.321 420.184 598.88 416.052 600.069C411.967 600.085 408.82 600.06 405.256 597.724C401.543 595.29 398.403 591.154 397.58 586.75C396.892 583.073 398.017 578.57 400.104 575.524C402.944 571.378 407.277 569.166 412.077 568.167Z"/>
	<path fill="#DE444F" transform="scale(0.898438 0.898438)" d="M400.8 440.309C409.579 437.65 417.925 436.42 426.429 441C433.322 444.713 438.493 451.244 440.61 458.781C442.672 466.126 441.604 474.261 437.828 480.873C433.906 487.741 426.54 492.988 418.875 494.828C412.508 496.356 406.129 494.88 400.101 492.722C394.867 489.423 390.567 486.111 387.402 480.676C383.484 473.947 382.504 466.779 384.504 459.25L385.213 456.802C387.935 448.885 393.465 443.943 400.8 440.309Z"/>
	<path fill="#FEFEFE" transform="scale(0.898438 0.898438)" d="M409.76 450.531C412.432 450.475 415.508 450.202 418.023 451.22C422.306 452.954 425.868 456.31 427.729 460.547C429.434 464.431 429.348 468.889 427.75 472.798C425.462 478.393 420.907 480.542 415.71 482.796C412.472 483.312 408.508 482.579 405.483 481.301C401.918 479.795 398.544 475.485 397.194 471.973C395.858 468.499 396.191 463.949 397.657 460.592C400.148 454.885 404.305 452.782 409.76 450.531Z"/>
	<path fill="#3A84BE" transform="scale(0.898438 0.898438)" d="M469.151 457.542C503.733 457.08 538.426 458.059 573.023 458.012C583.926 457.997 594.84 458.04 605.741 457.84C613.008 457.706 620.263 457.516 627.532 457.499C630.019 457.493 633.359 457.082 635.682 457.828C638.21 458.64 640.823 460.33 641.956 462.821C642.764 464.595 642.785 467.456 641.99 469.25C640.771 471.998 638.654 473.361 635.987 474.489C632.14 475.135 628.16 474.976 624.27 474.984C616.972 474.998 609.677 474.79 602.38 474.744C580.057 474.604 557.725 474.661 535.402 474.707C519.513 474.741 503.619 474.896 487.729 474.961C481.914 474.986 475.261 475.899 469.543 475.002C467.248 474.642 465.135 472.931 463.927 471C462.647 468.954 462.188 466.314 462.874 464C463.937 460.412 466.05 459.172 469.151 457.542Z"/>
	<path fill="#3A84BE" transform="scale(0.898438 0.898438)" d="M469.646 649.547C508.655 649.418 547.683 649.568 586.695 649.54C597.68 649.533 608.665 649.556 619.65 649.52C624.66 649.503 630.053 648.835 634.999 649.565C637.578 649.946 639.614 651.687 641.072 653.75C642.486 655.749 643.05 658.147 642.398 660.578C641.459 664.078 638.71 665.639 635.811 667.356C625.726 668.952 615.148 668.004 604.971 667.988C586.445 667.959 567.919 667.972 549.393 667.972C531.974 667.971 514.555 667.985 497.136 667.984C488.321 667.983 478.323 668.882 469.643 667.438C467.192 667.031 464.655 665.41 463.325 663.304C462.119 661.396 462.16 657.919 462.855 655.819C464.003 652.342 466.589 651.089 469.646 649.547Z"/>
	<path fill="#3A84BE" transform="scale(0.898438 0.898438)" d="M475.66 584.231C509.347 583.668 543.079 583.992 576.77 584.002C588.409 584.006 600.055 584.211 611.691 584.169C618.244 584.145 624.988 583.655 631.514 584.157C634.143 584.36 636.605 584.536 638.75 586.241C640.563 587.683 642.41 590.121 642.531 592.5C642.687 595.554 642.201 597.878 640.09 600.162C637.459 603.009 633.633 602.853 630.05 602.974C593.606 602.963 557.163 602.953 520.72 602.955C509.147 602.956 497.573 602.918 486 602.971C481.126 602.993 476.16 603.428 471.297 603.136C469.18 603.009 467.266 602.496 465.563 601.192C463.563 599.661 462.16 596.902 462.006 594.402C461.843 591.745 462.391 589.632 464.176 587.627C467.397 584.01 471.181 584.384 475.66 584.231Z"/>
	<path fill="#3A84BE" transform="scale(0.898438 0.898438)" d="M400.129 518.994C453.77 519.029 507.408 519.039 561.049 519.037C576.745 519.036 592.445 519.101 608.141 519.017C616.396 518.973 625.046 518.232 633.25 519.074C635.829 519.339 638.22 520.632 640.015 522.489C642.048 524.592 643.026 527.525 642.783 530.443C642.531 533.468 640.88 535.779 638.5 537.548C636.771 538.833 634.891 539.233 632.768 539.358C624.439 539.85 615.886 539.49 607.537 539.456C591.538 539.39 575.544 539.208 559.544 539.203C506.384 539.184 453.227 539.117 400.068 539.535C398.057 539.566 395.657 539.807 393.73 539.177L393.25 539.003C390.994 538.198 389.116 536.787 387.638 534.891C386.024 532.82 384.968 529.998 385.605 527.36C386.429 523.947 388.87 521.682 391.575 519.684C394.401 519.049 397.247 519.061 400.129 518.994Z"/>
</svg>
