<?xml version="1.0" encoding="utf-8" ?>
<svg xmlns="http://www.w3.org/2000/svg" xmlns:xlink="http://www.w3.org/1999/xlink" width="938" height="938">
	<path fill="#534AAD" transform="scale(0.916016 0.916016)" d="M492.868 31.7164C509.14 30.8789 525.884 31.6539 542.13 32.6271C564.887 33.9904 587.397 36.5982 609.745 41.235C689.955 57.8772 765.583 96.6837 827.23 150.446C894.222 208.87 946.548 287.715 971.962 373.128C982.459 408.407 988.42 444.91 990.918 481.604C997.259 574.783 974.644 669.582 928.496 750.633C911.904 779.775 892.319 806.715 870.273 831.947C803.058 908.876 708.487 961.728 608.628 982.036C583.211 987.205 557.432 989.72 531.589 991.452C515.013 991.747 498.628 992.381 482.043 991.296C378.49 984.521 277.36 944.506 198.606 876.547C187.465 866.933 177.189 856.52 166.998 845.921C146.809 824.926 128.129 802.473 111.919 778.248C66.5184 710.398 38.93 629.486 33.031 548.089C26.5952 459.286 44.089 368.449 85.4161 289.404C103.305 255.189 125.263 223.967 150.548 194.84C219.083 115.889 316.566 60.7533 418.885 40.4522C443.314 35.6051 468.062 33.468 492.868 31.7164Z"/>
	<path fill="#89EDB4" transform="scale(0.916016 0.916016)" d="M212.425 850.929L211.931 855.5L211.466 855.638C177.695 825.23 147.743 790.369 123.745 751.75C83.0188 686.211 60.6107 609.483 56.6782 532.604C50.5735 413.258 92.0024 294.863 172.235 206.252C234.896 137.047 317.985 87.5249 409.124 66.5969C436.349 60.3453 464.604 56.8892 492.5 55.5311C592.81 50.6474 694.853 82.1606 776.325 140.456C792.935 152.34 808.6 165.8 823.653 179.585C887.23 237.807 933.93 318.677 954.861 402.171C962.345 432.028 966.387 463.243 967.667 493.997C971.232 579.708 949.507 664.567 907.56 739.193C891.534 767.704 873.535 793.738 851.337 817.855L811.089 856.556C809.683 826.126 799.932 795.135 782.71 769.949C776.708 761.171 769.985 753.649 762.508 746.125C764.933 742.791 768.062 739.876 770.826 736.826C776.082 731.023 781.289 724.995 786.006 718.75C813.851 681.88 832.866 639.696 843.98 594.938C859.446 532.65 856.391 466.619 837.018 405.583C829.52 381.96 819.597 358.578 806.789 337.316C794.546 316.993 780.816 297.62 765.007 279.888C736.789 248.239 702.157 222.036 664.662 202.329C649.183 194.193 632.927 186.429 615.897 182.21L615.465 181.934C611.674 179.453 608.272 176.306 604.722 173.491C599.964 169.718 594.825 166.146 589.645 162.975C563.297 146.853 534.596 137.902 503.75 136.432C491.913 135.868 479.63 136.266 467.988 138.625C455.372 141.182 443.297 144.162 431.23 148.735C407.388 157.77 385.228 172.265 367.062 190.102C363.016 194.075 359.16 198.146 355.496 202.476C352.791 205.674 350.36 209.15 347.366 212.084C336.168 216.838 325.227 224.586 315.25 231.515C261.166 269.07 218.881 322.277 194.183 383.278C160.252 467.082 162.028 564.032 197.364 647.04C209.593 675.765 226.3 702.346 245.682 726.759C250.833 733.248 256 740.018 262.238 745.498C239.696 768.428 222.184 796.923 215.339 828.562C213.79 835.728 212.376 843.58 212.425 850.929Z"/>
	<path fill="#101166" transform="scale(0.916016 0.916016)" d="M347.366 212.084C350.36 209.15 352.791 205.674 355.496 202.476C359.16 198.146 363.016 194.075 367.062 190.102C385.228 172.265 407.388 157.77 431.23 148.735C443.297 144.162 455.372 141.182 467.988 138.625C479.63 136.266 491.913 135.868 503.75 136.432C534.596 137.902 563.297 146.853 589.645 162.975C594.825 166.146 599.964 169.718 604.722 173.491C608.272 176.306 611.674 179.453 615.465 181.934L615.897 182.21C632.927 186.429 649.183 194.193 664.662 202.329C702.157 222.036 736.789 248.239 765.007 279.888C780.816 297.62 794.546 316.993 806.789 337.316C819.597 358.578 829.52 381.96 837.018 405.583C856.391 466.619 859.446 532.65 843.98 594.938C832.866 639.696 813.851 681.88 786.006 718.75C781.289 724.995 776.082 731.023 770.826 736.826C768.062 739.876 764.933 742.791 762.508 746.125C769.985 753.649 776.708 761.171 782.71 769.949C799.932 795.135 809.683 826.126 811.089 856.556L791.541 872.899C774.16 885.876 756.613 897.855 737.702 908.515C692.359 934.075 642.922 950.38 592.04 960.555C565.168 965.929 537.065 967.794 509.705 967.603C419.61 966.976 332.384 940.756 257.5 890.503C250.99 886.134 244.657 881.5 238.315 876.891C237.054 875.974 233.477 873.834 232.75 872.581C232.465 872.088 232.381 870.705 232.26 870.091L231.977 871.5L231.458 871.647C224.659 867.723 218.384 861.7 212.525 856.483L212.425 850.929C212.376 843.58 213.79 835.728 215.339 828.562C222.184 796.923 239.696 768.428 262.238 745.498C256 740.018 250.833 733.248 245.682 726.759C226.3 702.346 209.593 675.765 197.364 647.04C162.028 564.032 160.252 467.082 194.183 383.278C218.881 322.277 261.166 269.07 315.25 231.515C325.227 224.586 336.168 216.838 347.366 212.084Z"/>
	<path fill="#534AAD" transform="scale(0.916016 0.916016)" d="M627.846 223.758C631.422 224.475 634.585 226.267 637.766 227.983C646.687 232.797 654.461 239.038 661.221 246.592C666.443 252.428 670.522 259.396 673.929 266.418C687.207 293.788 688.869 326.762 687.25 356.718L675.674 355.31L677.111 344.195L679.366 337.371L671.601 333.741C664.303 330.118 656.943 326.42 650.17 321.873C629.192 307.787 613.626 288.445 605.567 264.486C613.926 251.108 621.348 238.14 627.846 223.758Z"/>
	<path fill="#FEFEFE" transform="scale(0.916016 0.916016)" d="M451.486 602.664L478.09 613.996C486.106 616.94 495.539 619.869 504.021 620.72C527.603 623.085 551.919 612.674 572.817 602.976L573.344 657.207C564.337 661.831 555.387 666.642 545.75 669.849C522.22 677.679 496.711 676.115 473.5 668.039C465.775 665.35 458.5 661.621 451.226 657.922L451.486 602.664Z"/>
	<path fill="#FCBA19" transform="scale(0.916016 0.916016)" d="M583.312 674.409L627.223 695.473L625.766 698.257C612.145 723.211 583.648 743.1 556.676 751.014C530.078 758.818 501.127 760.446 474.266 752.849C463.081 749.686 452.485 744.907 442.326 739.317C424.274 728.379 410.318 713.993 398.378 696.691L440.605 675.286C454.206 682.331 467.869 688.295 482.799 691.865C492.549 694.197 502.422 694.794 512.412 694.659C538.226 694.312 561.316 687.951 583.312 674.409Z"/>
	<path fill="#534AAD" transform="scale(0.916016 0.916016)" d="M487.772 157.697C496.793 156.666 506.202 157.664 515.188 158.606C551.415 162.406 587.877 180.739 610.882 209.134C607.787 216.715 604.941 224.251 601.231 231.573C595.023 243.823 586.85 255.348 577.713 265.572C545.777 301.304 496.987 319.13 450.453 324.919C440.69 326.134 430.742 326.414 420.922 326.964C405.3 327.255 389.27 326.159 373.795 324.104C368.769 323.437 363.767 322.641 358.766 321.811C355.343 321.243 351.598 320.421 348.122 320.527C344.53 320.636 340.426 322.888 338.088 325.569C331.503 333.119 334.153 345.803 334.79 354.867C332.846 350.562 332.55 345.326 331.981 340.669C326.95 299.51 340.962 254.909 366.503 222.592C388.23 195.101 419.1 174.141 452.712 164.227C464.275 160.816 475.842 159.128 487.772 157.697Z"/>
	<path fill="#31A899" transform="scale(0.916016 0.916016)" d="M262.238 745.498C256 740.018 250.833 733.248 245.682 726.759C226.3 702.346 209.593 675.765 197.364 647.04C162.028 564.032 160.252 467.082 194.183 383.278C218.881 322.277 261.166 269.07 315.25 231.515C325.227 224.586 336.168 216.838 347.366 212.084L347.063 212.628C341.171 223.049 333.883 232.478 328.497 243.249C309.899 280.441 304.462 325.319 313.257 365.928C300.969 381.441 294.543 399.508 296.67 419.5C297.435 426.688 299.414 433.773 301.757 440.591C306.466 454.29 313.268 468.192 324.953 477.287C332.051 482.811 339.871 485.208 348.523 487.272C365.264 519.819 383.457 549.49 410.75 574.398C417.28 580.357 424.737 585.438 431.509 591.143L431.538 656.785C406.871 668.641 382.243 680.402 357.374 691.832C348.225 696.037 339.067 700.28 329.825 704.274C313.917 711.15 297.924 718.049 283.57 727.884C275.962 733.097 269.06 739.317 262.238 745.498Z"/>
	<path fill="#FDECD0" transform="scale(0.916016 0.916016)" d="M589.753 283.59C592.078 285.573 593.558 289.377 595.047 292.031C596.917 295.368 599.054 298.601 601.239 301.74C616.248 323.295 636.075 339.475 659.139 351.771C661.871 361.829 664.332 371.983 665.195 382.398C665.848 390.275 665.516 398.391 665.417 406.295C665.325 413.633 665.269 421.02 664.424 428.316C678.425 415.506 681.653 395.175 685.07 377.468C692.004 380.251 697.114 384.696 700.584 391.378C707.285 404.28 705.925 421.994 701.605 435.456C698.193 446.088 691.34 458.256 680.885 463.339C674.349 466.516 669.271 465.44 662.805 463.104C656.723 478.998 650.611 494.532 641.553 509.045C615.744 550.395 577.899 587.3 528.872 598.295C500.958 604.555 472.252 593.494 448.976 578.607C408.104 552.9 376.755 509.586 361.666 464.074C357.33 465.671 353.435 467.172 348.734 466.332C340.558 464.871 333.348 458.363 328.796 451.729C319.893 438.758 314.736 418.949 317.716 403.335C320.109 390.798 326.405 382.814 336.715 375.791C341.425 394.147 343.13 413.175 357.019 427.313C355.886 399.63 356.778 370.648 361.7 343.354L408.867 348.113C465.025 350.432 524.274 335.116 569.58 301.258C576.706 295.932 583.208 289.601 589.753 283.59Z"/>
	<path fill="#31A899" transform="scale(0.916016 0.916016)" d="M615.897 182.21C632.927 186.429 649.183 194.193 664.662 202.329C702.157 222.036 736.789 248.239 765.007 279.888C780.816 297.62 794.546 316.993 806.789 337.316C819.597 358.578 829.52 381.96 837.018 405.583C856.391 466.619 859.446 532.65 843.98 594.938C832.866 639.696 813.851 681.88 786.006 718.75C781.289 724.995 776.082 731.023 770.826 736.826C768.062 739.876 764.933 742.791 762.508 746.125C754.201 738.991 745.798 731.901 736.621 725.893C713.787 710.947 687.167 700.552 662.503 689.014C639.301 678.16 616.365 666.909 592.956 656.499L592.99 591.153C599.377 585.677 606.362 580.901 612.616 575.251C632.778 557.034 650.209 535.148 663.383 511.374C667.631 503.706 671.143 495.74 674.885 487.829C678.392 486.489 682.066 485.585 685.5 484.054C691.329 481.455 697.084 477.141 701.687 472.75C716.296 458.813 725.181 436.626 725.509 416.462C725.744 401.968 722.778 385.537 714.499 373.26C712.42 370.177 709.362 367.405 706.779 364.725L708.234 353.675C709.776 338.965 709.212 323.885 707.362 309.23C702.892 273.839 689.83 239.662 660.836 217.12C655.774 213.185 650.199 209.917 644.325 207.341C641.529 206.114 638 205.195 635.449 203.572C633.266 202.182 631.317 198.926 629.554 196.988C625.182 192.183 620.244 187.661 616.2 182.597L615.897 182.21Z"/>
	<path fill="#8DE0F5" transform="scale(0.916016 0.916016)" d="M232.26 870.091C229.094 833.637 243.654 796.908 266.923 769.239C277.609 756.532 290.305 745.893 304.673 737.568C318.728 729.425 334.487 723.196 349.392 716.737C359.094 712.534 368.582 707.935 378.184 703.522C384.432 712.744 391.047 722.06 398.625 730.25C419.93 753.278 448.612 768.792 479.38 774.663C520.118 782.437 566.505 774.991 601.042 751.339C619.244 738.873 634.489 722.845 645.632 703.749C658.302 708.738 670.179 715.038 682.467 720.832C692.8 725.704 703.381 730.236 713.369 735.793C741.22 751.287 765.595 774.362 778.427 803.941C787.848 825.656 791.41 849.347 791.541 872.899C774.16 885.876 756.613 897.855 737.702 908.515C692.359 934.075 642.922 950.38 592.04 960.555C565.168 965.929 537.065 967.794 509.705 967.603C419.61 966.976 332.384 940.756 257.5 890.503C250.99 886.134 244.657 881.5 238.315 876.891C237.054 875.974 233.477 873.834 232.75 872.581C232.465 872.088 232.381 870.705 232.26 870.091Z"/>
</svg>
