<?xml version="1.0" encoding="utf-8" ?>
<svg xmlns="http://www.w3.org/2000/svg" xmlns:xlink="http://www.w3.org/1999/xlink" width="1071" height="857">
	<path fill="#0E3646" transform="scale(0.836719 0.836914)" d="M379.174 908.752C382.477 912.073 384.555 916.524 387.689 920.047C398.935 932.69 413.743 941.146 430.333 944.327C445.189 947.176 459.621 945.333 474.549 945.111C489.91 944.883 505.281 945.134 520.643 945.14C577.685 945.16 634.727 945.143 691.768 945.14C723.458 945.139 755.517 944.109 787.154 945.634C816.869 947.067 852.534 940.291 869.36 912.89C871.205 909.885 872.961 906.707 874.398 903.488C875.431 901.175 876.568 896.431 878.477 894.903L879.227 894.352C878.934 898.826 878.898 903.568 878.101 907.976C875.839 920.482 869.13 931.683 859.556 940.004C847.697 950.312 833.632 956.806 818.12 959.224C813.002 960.021 807.381 959.658 802.193 959.651C793.37 959.639 784.548 959.635 775.725 959.64C743.575 959.658 711.425 959.662 679.275 959.662C625.63 959.66 571.985 959.656 518.341 959.634C501.049 959.627 483.757 959.619 466.465 959.609C457.608 959.604 448.499 960.052 439.675 959.455C422.154 958.271 404.465 948.813 393.178 935.503C386.789 927.968 381.064 918.554 379.174 908.752Z"/>
	<path fill="#304E5C" transform="scale(0.836719 0.836914)" d="M379.174 908.752C377.375 903.409 376.787 897.647 376.666 892.035C375.5 838.001 376.862 783.742 376.863 729.681C376.866 615.943 376.827 502.206 376.825 388.468C376.824 328.676 376.851 268.885 376.875 209.093C376.882 192.255 376.959 175.413 376.865 158.576C376.809 148.4 375.977 137.913 377.11 127.793C378.648 114.059 384.563 100.492 394.233 90.516C405.994 78.385 422.359 70.8453 439.348 70.6565C526.48 69.688 613.734 70.6454 700.878 70.6516C726.667 70.6534 752.456 70.6624 778.244 70.6504C790.431 70.6447 803.893 69.2814 815.879 71.2149C831.456 73.7277 845.722 80.6713 856.942 91.8213C867.707 102.52 874.513 117.159 876.937 132.079C878.639 142.556 877.483 154.049 877.477 164.683C877.466 186.021 877.467 207.359 877.466 228.697C877.463 307.622 877.288 386.551 877.564 465.475L859.91 465.277C860.4 385.573 860.031 305.886 860.065 226.182C860.073 207.133 860.087 188.083 860.118 169.034C860.129 162.16 860.142 155.287 860.138 148.413C860.135 143.038 860.331 137.751 858.958 132.512C855.098 117.78 846.575 104.817 833.364 96.9032C827.441 93.3552 819.459 89.9017 812.5 89.3664C804.935 88.7846 797.192 89.0796 789.605 89.0827C777.12 89.0878 764.635 89.1038 752.149 89.113C713.455 89.1415 674.76 89.1403 636.066 89.1142C587.36 89.0813 538.656 88.672 489.951 88.7908C478.316 88.8192 466.68 88.8496 455.046 88.9538C447.871 89.0181 439.792 88.4412 432.818 90.2454C418.886 93.8498 406.846 102.536 399.671 115.125C394.538 124.133 391.7 133.71 391.286 144.088C390.117 173.378 391.246 203.148 391.658 232.471C392.063 261.287 391.839 290.145 391.836 318.966C391.826 440.333 391.425 561.699 391.683 683.067C391.768 723.384 391.875 763.703 391.632 804.019C391.552 817.364 391.4 830.705 391.183 844.048C391.011 854.547 390.754 865.247 391.575 875.719C391.935 880.307 392.094 884.828 393.342 889.293C397.235 903.223 406.377 915.497 419.077 922.494C425.428 925.994 432.235 927.743 439.44 928.179C449.837 928.808 460.546 928.309 470.971 928.309C492.313 928.309 513.659 928.23 535 928.373C600.585 928.813 666.15 929 731.743 928.981C747.936 928.977 764.13 928.99 780.323 928.99C794.739 928.99 811.382 930.793 825.279 926.554C838.121 922.637 848.562 912.313 854.643 900.594C857.668 894.763 859.672 888.218 860.304 881.68C860.939 875.115 860.484 868.391 860.401 861.801C860.265 851.138 860.183 840.474 860.146 829.81C860.012 791.643 859.972 753.475 860.012 715.307L878.748 715.239L879.227 894.352L878.477 894.903C876.568 896.431 875.431 901.175 874.398 903.488C872.961 906.707 871.205 909.885 869.36 912.89C852.534 940.291 816.869 947.067 787.154 945.634C755.517 944.109 723.458 945.139 691.768 945.14C634.727 945.143 577.685 945.16 520.643 945.14C505.281 945.134 489.91 944.883 474.549 945.111C459.621 945.333 445.189 947.176 430.333 944.327C413.743 941.146 398.935 932.69 387.689 920.047C384.555 916.524 382.477 912.073 379.174 908.752Z"/>
	<path fill="#0E3646" transform="scale(0.836719 0.836914)" d="M860.012 715.307C859.972 753.475 860.012 791.643 860.146 829.81C860.183 840.474 860.265 851.138 860.401 861.801C860.484 868.391 860.939 875.115 860.304 881.68C859.672 888.218 857.668 894.763 854.643 900.594C848.562 912.313 838.121 922.637 825.279 926.554C811.382 930.793 794.739 928.99 780.323 928.99C764.13 928.99 747.936 928.977 731.743 928.981C666.15 929 600.585 928.813 535 928.373C513.659 928.23 492.313 928.309 470.971 928.309C460.546 928.309 449.837 928.808 439.44 928.179C432.235 927.743 425.428 925.994 419.077 922.494C406.377 915.497 397.235 903.223 393.342 889.293C392.094 884.828 391.935 880.307 391.575 875.719C390.754 865.247 391.011 854.547 391.183 844.048C391.4 830.705 391.552 817.364 391.632 804.019C391.875 763.703 391.768 723.384 391.683 683.067C391.425 561.699 391.826 440.333 391.836 318.966C391.839 290.145 392.063 261.287 391.658 232.471C391.246 203.148 390.117 173.378 391.286 144.088C391.7 133.71 394.538 124.133 399.671 115.125C406.846 102.536 418.886 93.8498 432.818 90.2454C439.792 88.4412 447.871 89.0181 455.046 88.9538C466.68 88.8496 478.316 88.8192 489.951 88.7908C538.656 88.672 587.36 89.0813 636.066 89.1142C674.76 89.1403 713.455 89.1415 752.149 89.113C764.635 89.1038 777.12 89.0878 789.605 89.0827C797.192 89.0796 804.935 88.7846 812.5 89.3664C819.459 89.9017 827.441 93.3552 833.364 96.9032C846.575 104.817 855.098 117.78 858.958 132.512C860.331 137.751 860.135 143.038 860.138 148.413C860.142 155.287 860.129 162.16 860.118 169.034C860.087 188.083 860.073 207.133 860.065 226.182C860.031 305.886 860.4 385.573 859.91 465.277L836.353 465.096C829.931 466.47 823.043 465.714 816.501 465.608C807.417 465.461 798.324 465.457 789.238 465.407L789.421 305.028C769.382 285.771 750.008 265.751 730.442 246.006C722.077 237.564 713.818 227.401 704.446 220.235L464.496 220.272L464.38 775.801L780.969 775.427C784.243 773.382 786.715 771.289 788.632 767.861L788.474 720.661C787.595 719.159 788.139 716.422 788.207 714.649C789.487 708.691 788.497 701.547 788.08 695.496L836.203 695.044C856.037 695.049 875.872 695.072 895.706 695.101C904.149 695.114 914.066 696.197 922.315 694.809L923.125 694.659C929.067 693.612 935.29 690.638 939.611 686.356C944.027 681.979 947.08 675.715 948.19 669.634C949.456 662.7 948.941 654.799 948.857 647.771C948.743 638.315 948.754 628.861 948.75 619.405C948.733 582.481 948.905 545.55 948.654 508.628C948.798 499.864 948.707 491.902 947.174 483.258C955.337 489.818 962.361 497.047 963.561 507.916C964.854 519.626 963.731 531.114 963.712 542.837C963.673 566.292 963.689 589.747 963.712 613.202C963.725 626.843 963.678 640.481 964.043 654.119C964.305 663.936 965.375 674.461 964.364 684.224C963.652 691.102 961.145 697.927 956.756 703.314C950.516 710.972 942.324 714.735 932.557 715.53L878.748 715.239L860.012 715.307Z"/>
	<path fill="#304E5C" transform="scale(0.836719 0.836914)" d="M552.65 109.336L556.562 109.403C559.199 109.86 561.517 111.939 562.868 114.176C564.134 116.274 564.602 118.892 563.972 121.27C563.022 124.853 560.478 126.282 557.52 128.099L555.545 128.058C552.455 127.841 549.439 126.949 547.471 124.447C545.66 122.145 545.019 119.152 545.697 116.278C546.487 112.924 549.975 111.018 552.65 109.336Z"/>
	<path fill="#304E5C" transform="scale(0.836719 0.836914)" d="M582 112.148L697.5 112.08C699.788 112.278 701.252 113.116 702.684 114.872C704.191 116.721 703.733 119.379 703.578 121.592C702.018 123.748 700.574 124.793 698.34 126.142L582.188 126.221C580.424 125.356 579.266 124.567 578.246 122.842C577.193 121.06 576.671 119.318 577.27 117.275C578.03 114.685 579.801 113.492 582 112.148Z"/>
	<path fill="#304E5C" transform="scale(0.836719 0.836914)" d="M610.43 853.016C619.538 853.029 628.653 853.098 637.759 852.974C643.246 852.899 649.547 852.14 654.901 853.086L655.625 853.229C658.492 853.781 660.773 854.829 662.949 856.811C666.576 860.113 667.502 864.273 667.723 868.956C667.933 873.41 667.69 877.958 667.649 882.424C667.575 890.53 668.544 899.83 662.434 906.146C657.952 910.779 652.034 910.35 646.122 910.517C638.545 910.398 630.956 910.219 623.377 910.327C615.907 910.434 608.151 910.812 600.724 909.891C595.644 909.261 592.087 907.397 589.08 903.185C584.268 896.444 586.084 883.515 586.164 875.453C586.199 871.971 585.737 867.427 586.6 864.088C587.986 858.73 592.631 855.985 597.058 853.372L610.43 853.016Z"/>
	<path fill="#F8D9AB" transform="scale(0.836719 0.836914)" d="M836.261 715.085C836.467 739.961 836.388 764.842 836.387 789.719C836.387 796.626 836.385 803.533 836.383 810.44C836.382 814.135 836.726 818.271 836.163 821.908C835.587 825.637 833.174 829.36 830.074 831.527C825.065 835.03 819.201 834.795 813.348 834.979C802.183 835.331 790.933 834.788 779.759 834.647C764.364 834.452 748.961 834.541 733.565 834.535C671.98 834.512 610.396 834.518 548.811 834.535C518.804 834.544 488.738 835.3 458.75 834.786C450.416 834.643 440.165 835.826 432.083 834.164C427.756 833.274 424.709 830.906 422.291 827.255C420.78 824.975 419.738 822.267 419.535 819.541C418.816 809.916 419.366 799.907 419.385 790.249C419.419 772.845 419.397 755.44 419.399 738.036C419.407 681.867 419.415 625.698 419.424 569.528C419.442 467.003 419.521 364.483 419.82 261.959C419.879 241.825 420.021 221.683 419.904 201.55C419.866 195.044 419.706 188.54 419.577 182.036C419.484 177.316 419.215 171.914 420.33 167.31L420.517 166.603C421.379 163.288 423.145 160.419 425.486 157.934C428.703 154.518 433.175 152.005 437.872 151.483C449.684 150.17 462.337 150.954 474.246 150.95C496.303 150.944 518.361 150.961 540.418 150.955C600.768 150.94 661.117 150.917 721.467 150.937C750.892 150.946 780.449 151.945 809.856 151.042C816.946 150.825 824.278 151.152 829.688 156.377C833.163 159.734 835.642 164.191 836.216 169.008C837.377 178.759 836.363 188.84 836.335 198.651C836.278 218.773 836.302 238.896 836.305 259.019C836.318 327.711 836.332 396.404 836.353 465.096C829.931 466.47 823.043 465.714 816.501 465.608C807.417 465.461 798.324 465.457 789.238 465.407L789.421 305.028C769.382 285.771 750.008 265.751 730.442 246.006C722.077 237.564 713.818 227.401 704.446 220.235L464.496 220.272L464.38 775.801L780.969 775.427C784.243 773.382 786.715 771.289 788.632 767.861L788.474 720.661C787.595 719.159 788.139 716.422 788.207 714.649C789.487 708.691 788.497 701.547 788.08 695.496L836.203 695.044L836.261 715.085Z"/>
	<path fill="#E07828" transform="scale(0.836719 0.836914)" d="M788.08 695.496L836.203 695.044L836.261 715.085C830.516 715.027 790.55 713.914 788.759 715.175C788.476 717.037 788.425 718.779 788.474 720.661C787.595 719.159 788.139 716.422 788.207 714.649C789.487 708.691 788.497 701.547 788.08 695.496Z"/>
	<path fill="#EE582D" transform="scale(0.836719 0.836914)" d="M464.496 220.272L704.446 220.235C713.818 227.401 722.077 237.564 730.442 246.006C750.008 265.751 769.382 285.771 789.421 305.028L789.238 465.407C798.324 465.457 807.417 465.461 816.501 465.608C823.043 465.714 829.931 466.47 836.353 465.096L859.91 465.277L877.564 465.475C887.404 465.605 897.232 465.58 907.072 465.515C912.5 465.479 918.84 464.845 924.171 465.838C930.152 466.952 936.358 470.069 940.578 474.471C943.069 477.07 945.034 480.357 947.174 483.258C948.707 491.902 948.798 499.864 948.654 508.628C948.905 545.55 948.733 582.481 948.75 619.405C948.754 628.861 948.743 638.315 948.857 647.771C948.941 654.799 949.456 662.7 948.19 669.634C947.08 675.715 944.027 681.979 939.611 686.356C935.29 690.638 929.067 693.612 923.125 694.659L922.315 694.809C914.066 696.197 904.149 695.114 895.706 695.101C875.872 695.072 856.037 695.049 836.203 695.044L788.08 695.496C788.497 701.547 789.487 708.691 788.207 714.649C788.139 716.422 787.595 719.159 788.474 720.661L788.632 767.861C786.715 771.289 784.243 773.382 780.969 775.427L464.38 775.801L464.496 220.272Z"/>
	<path fill="#FFFEFE" transform="scale(0.836719 0.836914)" d="M660.656 533.973L660.681 545.073L509.905 545.185L509.886 533.887L660.656 533.973Z"/>
	<path fill="#FFFEFE" transform="scale(0.836719 0.836914)" d="M509.976 642.68L660.579 642.838L660.573 654.024L509.994 654.036L509.976 642.68Z"/>
	<path fill="#FFFEFE" transform="scale(0.836719 0.836914)" d="M509.973 588.765L661.051 588.819C661.077 592.557 661.366 596.515 660.962 600.223L509.985 600.238L509.973 588.765Z"/>
	<path fill="#FFFEFE" transform="scale(0.836719 0.836914)" d="M509.699 480.791L665.373 480.976L661.106 492.497L509.705 492.432L509.699 480.791Z"/>
	<path fill="#C13629" transform="scale(0.836719 0.836914)" d="M670.097 685.321C674.81 688.767 679.328 692.259 685 693.969L685.728 694.198C694.735 696.838 707.21 695.45 716.691 695.45C732.236 695.449 747.781 695.456 763.326 695.454C771.532 695.453 779.897 695.117 788.08 695.496C788.497 701.547 789.487 708.691 788.207 714.649C771.855 714.86 755.49 714.509 739.137 714.692C726.463 714.834 713.367 716.312 700.813 714.135C695.953 713.292 691.18 711.269 687.064 708.567C679.012 703.281 672.14 694.854 670.097 685.321Z"/>
	<path fill="#F6A440" transform="scale(0.836719 0.836914)" d="M704.446 220.235C713.818 227.401 722.077 237.564 730.442 246.006C750.008 265.751 769.382 285.771 789.421 305.028L704.268 305.186L704.446 220.235Z"/>
	<path fill="#FFFEFE" transform="scale(0.836719 0.836914)" d="M510.673 370.042L748.161 370.22L748.169 396.495L510.637 396.526L510.673 370.042Z"/>
	<path fill="#FFFEFE" transform="scale(0.836719 0.836914)" d="M510.681 335.062L748.365 335.01L748.188 362.569L510.694 362.604L510.681 335.062Z"/>
	<path fill="#20A5B9" transform="scale(0.836719 0.836914)" d="M836.353 465.096L859.91 465.277L877.564 465.475C887.404 465.605 897.232 465.58 907.072 465.515C912.5 465.479 918.84 464.845 924.171 465.838C930.152 466.952 936.358 470.069 940.578 474.471C943.069 477.07 945.034 480.357 947.174 483.258C948.707 491.902 948.798 499.864 948.654 508.628C948.905 545.55 948.733 582.481 948.75 619.405C948.754 628.861 948.743 638.315 948.857 647.771C948.941 654.799 949.456 662.7 948.19 669.634C947.08 675.715 944.027 681.979 939.611 686.356C935.29 690.638 929.067 693.612 923.125 694.659L922.315 694.809C914.066 696.197 904.149 695.114 895.706 695.101C875.872 695.072 856.037 695.049 836.203 695.044L788.08 695.496C779.897 695.117 771.532 695.453 763.326 695.454C747.781 695.456 732.236 695.449 716.691 695.45C707.21 695.45 694.735 696.838 685.728 694.198L685 693.969C679.328 692.259 674.81 688.767 670.097 685.321C666.197 680.469 663.404 675.413 661.273 669.566C660.216 664.514 660.554 659.165 660.573 654.024L660.579 642.838L660.962 600.223C661.366 596.515 661.077 592.557 661.051 588.819L660.681 545.073L660.656 533.973L661.106 492.497L665.373 480.976C667.01 478.598 668.681 476.271 670.679 474.179C674.519 470.16 679.828 467.041 685.312 465.95C688.962 465.223 692.947 465.534 696.663 465.529C702.948 465.522 709.234 465.519 715.52 465.517C740.081 465.508 764.682 465.828 789.238 465.407C798.324 465.457 807.417 465.461 816.501 465.608C823.043 465.714 829.931 466.47 836.353 465.096Z"/>
	<path fill="#127D91" transform="scale(0.836719 0.836914)" d="M819.702 504.358L820.655 502.795C821.83 502.813 822.739 502.519 823.604 503.41C825.506 505.367 826.348 512.17 826.218 514.813C826.176 515.657 825.947 516.19 825.634 516.962C824.321 516.499 822.707 516.077 821.613 515.201C819.865 513.802 819.935 506.808 819.702 504.358Z"/>
	<path fill="#127D91" transform="scale(0.836719 0.836914)" d="M874.509 534.79L883.631 543.855L870.664 554.56C871.419 558.149 872.502 561.561 871.157 565.137C870.551 564.732 869.295 563.805 868.937 563.166C868.131 561.73 867.753 559.137 867.227 557.505C865.998 553.693 864.05 550.729 861.78 547.447L874.509 534.79Z"/>
	<path fill="#127D91" transform="scale(0.836719 0.836914)" d="M766.124 638.559C772.235 641.47 778.075 644.264 784.715 645.776L784.062 650.637C780.44 651.605 777.438 649.598 774.277 648.039L759.479 664.906C756.515 662.203 753.495 659.629 751.254 656.265L766.124 638.559Z"/>
	<path fill="#127D91" transform="scale(0.836719 0.836914)" d="M875.194 629.248L883.73 638.684L860.037 662.955L850.666 654.157L875.194 629.248Z"/>
	<path fill="#127D91" transform="scale(0.836719 0.836914)" d="M889.926 573.818L895.938 574.013C896.236 574.389 896.643 574.7 896.833 575.14C897.286 576.191 896.846 580.04 896.849 581.329C896.871 589.482 896.892 597.634 896.914 605.787L877.233 605.788L869.567 623.335L861.458 614.328L868.407 597.004C875.093 595.893 882.442 596.178 889.235 595.959L889.926 573.818Z"/>
	<path fill="#127D91" transform="scale(0.836719 0.836914)" d="M834.441 639.501L843.689 647.411C838.828 649.963 833.178 651.267 828.102 653.572L828.121 675.808L793.872 675.791L793.771 666.925C797.47 667.044 801.807 667.608 805.355 666.564L818.721 666.011L818.99 646.185L834.441 639.501Z"/>
	<path fill="#FFFEFE" transform="scale(0.836719 0.836914)" d="M787.7 494.292L818.617 493.78L819.702 504.358C819.935 506.808 819.865 513.802 821.613 515.201C822.707 516.077 824.321 516.499 825.634 516.962L838.014 522.209L851.346 510.513L874.509 534.79L861.78 547.447C864.05 550.729 865.998 553.693 867.227 557.505C867.753 559.137 868.131 561.73 868.937 563.166C869.295 563.805 870.551 564.732 871.157 565.137C877.256 564.55 883.92 564.958 890.041 565.348L889.926 573.818L889.235 595.959C882.442 596.178 875.093 595.893 868.407 597.004L861.458 614.328L869.567 623.335L875.194 629.248L850.666 654.157L843.689 647.411L834.441 639.501L818.99 646.185L818.721 666.011L805.355 666.564L784.988 666.319L784.715 645.776C778.075 644.264 772.235 641.47 766.124 638.559L751.254 656.265C748.574 652.967 744.456 650.015 741.315 647.064C736.428 642.472 731.931 637.577 727.445 632.597C730.532 625.694 737.046 619.936 742.269 614.583L737.883 606.992C734.413 606.61 726.983 604.466 724.062 602.576C723.449 600.502 723.205 598.419 722.924 596.282L716.261 595.611L716.287 565.328L735.06 563.09L742.828 546.684L729.38 530.935L750.54 509.007L766.832 522.568C772.714 519.661 778.563 517.425 784.807 515.426L787.7 494.292Z"/>
	<path fill="#127D91" transform="scale(0.836719 0.836914)" d="M722.924 596.282L734.621 597.059L737.883 606.992C734.413 606.61 726.983 604.466 724.062 602.576C723.449 600.502 723.205 598.419 722.924 596.282Z"/>
	<path fill="#127D91" transform="scale(0.836719 0.836914)" d="M770.413 606.277C763.723 598.953 760.871 588.882 761.34 579.088C761.872 567.983 767.202 557.909 775.444 550.573C783.597 543.317 795.147 539.974 805.938 540.687C816.329 541.374 826.384 547.956 833.047 555.601L832.511 555.615C829.217 555.636 825.921 553.852 822.786 552.826C814.345 550.064 802.036 551.112 794.178 555.215C786.735 559.102 780.704 563.496 776.209 570.764L775.785 571.436C773.112 575.749 771.834 580.302 770.45 585.118C769.177 589.544 769.434 598.204 770.604 602.647L771.109 604.523L770.413 606.277Z"/>
	<path fill="#20A5B9" transform="scale(0.836719 0.836914)" d="M770.413 606.277L771.109 604.523L770.604 602.647C769.434 598.204 769.177 589.544 770.45 585.118C771.834 580.302 773.112 575.749 775.785 571.436L776.209 570.764C780.704 563.496 786.735 559.102 794.178 555.215C802.036 551.112 814.345 550.064 822.786 552.826C825.921 553.852 829.217 555.636 832.511 555.615L833.047 555.601C840.159 564.56 843.659 574.141 842.435 585.69L842.004 588.269L841.816 589.259C839.924 599.001 832.933 608.974 824.642 614.342C815.029 620.565 803.046 622.393 791.907 619.771C784.247 617.967 775.02 612.712 770.413 606.277Z"/>
</svg>
