<svg id="visual" viewBox="0 0 900 600" width="900" height="600" xmlns="http://www.w3.org/2000/svg" xmlns:xlink="http://www.w3.org/1999/xlink" version="1.1"><path d="M0 103L13.7 124C27.3 145 54.7 187 82 188C109.3 189 136.7 149 163.8 140C191 131 218 153 245.2 171C272.3 189 299.7 203 327 211C354.3 219 381.7 221 409 205C436.3 189 463.7 155 491 151C518.3 147 545.7 173 573 171C600.3 169 627.7 139 654.8 129C682 119 709 129 736.2 150C763.3 171 790.7 203 818 207C845.3 211 872.7 187 886.3 175L900 163L900 0L886.3 0C872.7 0 845.3 0 818 0C790.7 0 763.3 0 736.2 0C709 0 682 0 654.8 0C627.7 0 600.3 0 573 0C545.7 0 518.3 0 491 0C463.7 0 436.3 0 409 0C381.7 0 354.3 0 327 0C299.7 0 272.3 0 245.2 0C218 0 191 0 163.8 0C136.7 0 109.3 0 82 0C54.7 0 27.3 0 13.7 0L0 0Z" fill="#6198ff"></path><path d="M0 145L13.7 167C27.3 189 54.7 233 82 236C109.3 239 136.7 201 163.8 197C191 193 218 223 245.2 248C272.3 273 299.7 293 327 298C354.3 303 381.7 293 409 268C436.3 243 463.7 203 491 198C518.3 193 545.7 223 573 228C600.3 233 627.7 213 654.8 206C682 199 709 205 736.2 227C763.3 249 790.7 287 818 292C845.3 297 872.7 269 886.3 255L900 241L900 161L886.3 173C872.7 185 845.3 209 818 205C790.7 201 763.3 169 736.2 148C709 127 682 117 654.8 127C627.7 137 600.3 167 573 169C545.7 171 518.3 145 491 149C463.7 153 436.3 187 409 203C381.7 219 354.3 217 327 209C299.7 201 272.3 187 245.2 169C218 151 191 129 163.8 138C136.7 147 109.3 187 82 186C54.7 185 27.3 143 13.7 122L0 101Z" fill="#3c80ff"></path><path d="M0 271L13.7 281C27.3 291 54.7 311 82 304C109.3 297 136.7 263 163.8 257C191 251 218 273 245.2 306C272.3 339 299.7 383 327 389C354.3 395 381.7 363 409 328C436.3 293 463.7 255 491 250C518.3 245 545.7 273 573 282C600.3 291 627.7 281 654.8 284C682 287 709 303 736.2 331C763.3 359 790.7 399 818 394C845.3 389 872.7 339 886.3 314L900 289L900 239L886.3 253C872.7 267 845.3 295 818 290C790.7 285 763.3 247 736.2 225C709 203 682 197 654.8 204C627.7 211 600.3 231 573 226C545.7 221 518.3 191 491 196C463.7 201 436.3 241 409 266C381.7 291 354.3 301 327 296C299.7 291 272.3 271 245.2 246C218 221 191 191 163.8 195C136.7 199 109.3 237 82 234C54.7 231 27.3 187 13.7 165L0 143Z" fill="#0066ff"></path><path d="M0 511L13.7 511C27.3 511 54.7 511 82 506C109.3 501 136.7 491 163.8 477C191 463 218 445 245.2 454C272.3 463 299.7 499 327 499C354.3 499 381.7 463 409 448C436.3 433 463.7 439 491 439C518.3 439 545.7 433 573 437C600.3 441 627.7 455 654.8 469C682 483 709 497 736.2 508C763.3 519 790.7 527 818 523C845.3 519 872.7 503 886.3 495L900 487L900 287L886.3 312C872.7 337 845.3 387 818 392C790.7 397 763.3 357 736.2 329C709 301 682 285 654.8 282C627.7 279 600.3 289 573 280C545.7 271 518.3 243 491 248C463.7 253 436.3 291 409 326C381.7 361 354.3 393 327 387C299.7 381 272.3 337 245.2 304C218 271 191 249 163.8 255C136.7 261 109.3 295 82 302C54.7 309 27.3 289 13.7 279L0 269Z" fill="#0059dd"></path><path d="M0 601L13.7 601C27.3 601 54.7 601 82 601C109.3 601 136.7 601 163.8 601C191 601 218 601 245.2 601C272.3 601 299.7 601 327 601C354.3 601 381.7 601 409 601C436.3 601 463.7 601 491 601C518.3 601 545.7 601 573 601C600.3 601 627.7 601 654.8 601C682 601 709 601 736.2 601C763.3 601 790.7 601 818 601C845.3 601 872.7 601 886.3 601L900 601L900 485L886.3 493C872.7 501 845.3 517 818 521C790.7 525 763.3 517 736.2 506C709 495 682 481 654.8 467C627.7 453 600.3 439 573 435C545.7 431 518.3 437 491 437C463.7 437 436.3 431 409 446C381.7 461 354.3 497 327 497C299.7 497 272.3 461 245.2 452C218 443 191 461 163.8 475C136.7 489 109.3 499 82 504C54.7 509 27.3 509 13.7 509L0 509Z" fill="#004cbb"></path></svg>