<svg id="visual" viewBox="0 0 900 600" width="900" height="600" xmlns="http://www.w3.org/2000/svg" xmlns:xlink="http://www.w3.org/1999/xlink" version="1.1"><path d="M0 97L150 79L300 85L450 79L600 85L750 73L900 97L900 0L750 0L600 0L450 0L300 0L150 0L0 0Z" fill="#038373"></path><path d="M0 205L150 235L300 223L450 247L600 205L750 187L900 217L900 95L750 71L600 83L450 77L300 83L150 77L0 95Z" fill="#008f79"></path><path d="M0 271L150 295L300 289L450 337L600 265L750 247L900 271L900 215L750 185L600 203L450 245L300 221L150 233L0 203Z" fill="#009b7f"></path><path d="M0 319L150 325L300 343L450 367L600 319L750 301L900 301L900 269L750 245L600 263L450 335L300 287L150 293L0 269Z" fill="#00a784"></path><path d="M0 373L150 373L300 415L450 415L600 373L750 343L900 361L900 299L750 299L600 317L450 365L300 341L150 323L0 317Z" fill="#00b388"></path><path d="M0 553L150 553L300 559L450 559L600 547L750 541L900 535L900 359L750 341L600 371L450 413L300 413L150 371L0 371Z" fill="#00c08c"></path><path d="M0 601L150 601L300 601L450 601L600 601L750 601L900 601L900 533L750 539L600 545L450 557L300 557L150 551L0 551Z" fill="#00cc8e"></path></svg>