<svg id="visual" viewBox="0 0 900 600" width="900" height="600" xmlns="http://www.w3.org/2000/svg" xmlns:xlink="http://www.w3.org/1999/xlink" version="1.1"><path d="M0 79L75 97L150 79L225 91L300 91L375 91L450 67L525 91L600 79L675 79L750 73L825 91L900 91L900 0L825 0L750 0L675 0L600 0L525 0L450 0L375 0L300 0L225 0L150 0L75 0L0 0Z" fill="#034e82"></path><path d="M0 205L75 217L150 223L225 223L300 199L375 223L450 223L525 223L600 241L675 223L750 205L825 229L900 241L900 89L825 89L750 71L675 77L600 77L525 89L450 65L375 89L300 89L225 89L150 77L75 95L0 77Z" fill="#115990"></path><path d="M0 253L75 253L150 271L225 265L300 253L375 271L450 259L525 265L600 289L675 259L750 241L825 265L900 283L900 239L825 227L750 203L675 221L600 239L525 221L450 221L375 221L300 197L225 221L150 221L75 215L0 203Z" fill="#1c649e"></path><path d="M0 301L75 313L150 331L225 313L300 295L375 325L450 313L525 319L600 337L675 301L750 301L825 313L900 331L900 281L825 263L750 239L675 257L600 287L525 263L450 257L375 269L300 251L225 263L150 269L75 251L0 251Z" fill="#256fac"></path><path d="M0 355L75 367L150 379L225 361L300 367L375 379L450 373L525 391L600 385L675 367L750 349L825 373L900 397L900 329L825 311L750 299L675 299L600 335L525 317L450 311L375 323L300 293L225 311L150 329L75 311L0 299Z" fill="#2e7bbb"></path><path d="M0 385L75 403L150 409L225 397L300 397L375 409L450 403L525 427L600 415L675 397L750 385L825 409L900 427L900 395L825 371L750 347L675 365L600 383L525 389L450 371L375 377L300 365L225 359L150 377L75 365L0 353Z" fill="#3787ca"></path><path d="M0 517L75 529L150 529L225 517L300 535L375 523L450 529L525 529L600 523L675 523L750 529L825 529L900 535L900 425L825 407L750 383L675 395L600 413L525 425L450 401L375 407L300 395L225 395L150 407L75 401L0 383Z" fill="#3f93d9"></path><path d="M0 559L75 559L150 565L225 559L300 565L375 559L450 571L525 565L600 559L675 565L750 565L825 559L900 565L900 533L825 527L750 527L675 521L600 521L525 527L450 527L375 521L300 533L225 515L150 527L75 527L0 515Z" fill="#479fe8"></path><path d="M0 601L75 601L150 601L225 601L300 601L375 601L450 601L525 601L600 601L675 601L750 601L825 601L900 601L900 563L825 557L750 563L675 563L600 557L525 563L450 569L375 557L300 563L225 557L150 563L75 557L0 557Z" fill="#4facf7"></path></svg>