<?xml version="1.0" encoding="utf-8" ?>
<svg xmlns="http://www.w3.org/2000/svg" xmlns:xlink="http://www.w3.org/1999/xlink" width="1024" height="1024">
	<path fill="#96BCC0" fill-opacity="0.98431373" d="M504.682 0L520.231 0L520.048 0.599293L504.514 0.59971L504.682 0Z"/>
	<path fill="#96BCC0" fill-opacity="0.98039216" d="M2.23098 0L504.682 0L504.514 0.59971L1.99264 0.386766L2.23098 0Z"/>
	<path fill="#96BCC0" fill-opacity="0.98823529" d="M520.231 0L1024 0L1024 0.552617L520.048 0.599293L520.231 0Z"/>
	<path fill="#96BCC0" fill-opacity="0.94901961" d="M0 0L2.23098 0L1.99264 0.386766L0.698313 1.25L0.524085 1024L0 1024L0 0Z"/>
	<path fill="#1C9B8E" d="M351.465 873.948C354.01 873.238 357.076 873.557 359.724 873.551C365.166 873.541 370.608 873.546 376.05 873.545C396.164 873.539 416.277 873.535 436.39 873.533C500.585 873.527 564.777 873.876 628.969 873.917C638.274 873.923 647.604 874.05 656.907 873.837C664.288 873.669 671.663 873.055 679.046 873.112C665.247 880.604 650.578 886.107 635.67 890.983C603.12 901.63 569.009 907.341 534.853 909.154C490.744 911.496 446.868 907.284 404.443 894.716C394.296 891.71 384.345 888.085 374.476 884.275C366.632 881.247 358.733 878.226 351.465 873.948Z"/>
	<path fill="#1C9B8E" d="M344.89 148.313L363.458 139.992C375.122 135.508 387.399 131.968 399.426 128.577C428.804 120.293 458.664 114.624 489.179 112.715C504.112 111.781 519.227 112.179 534.149 113.056C583.751 115.971 632.061 127.611 677.44 147.822C675.189 148.912 671.957 148.451 669.451 148.455C663.789 148.464 658.128 148.475 652.467 148.48C633.822 148.498 615.178 148.495 596.533 148.496C535.666 148.496 474.798 148.54 413.93 148.564C397.853 148.571 381.775 148.577 365.697 148.581C361.277 148.582 356.857 148.583 352.437 148.584C349.99 148.584 347.291 148.78 344.89 148.313Z"/>
	<path fill="#1C9B8E" d="M276.881 194.723C275.491 199.328 274.016 204.048 273.298 208.813C271.101 223.395 272.433 238.676 272.507 253.379C272.589 269.629 272.611 285.879 272.623 302.129C272.655 347.192 272.631 392.255 272.629 437.319C272.627 513.732 272.674 590.146 272.659 666.559C272.654 692.087 272.659 717.615 272.644 743.143C272.637 755.723 272.325 768.325 272.586 780.901C272.43 796.599 274.147 811.95 281.039 826.242C282.409 829.082 283.904 831.826 285.494 834.547C286.389 836.079 287.548 837.578 287.898 839.328C279.214 833.85 271.364 827.147 263.512 820.567C224.052 787.496 192.592 746.786 168.541 701.369C117.663 605.29 110.765 488.562 142.719 385.429C162.014 323.158 199.404 266.851 245.486 221.255C251.616 215.189 257.8 209.277 264.424 203.75C268.418 200.418 272.262 197.153 276.881 194.723Z"/>
	<path fill="#1C9B8E" d="M747.183 192.51C760.955 201.13 773.24 213.451 784.691 224.905C838.318 278.548 875.579 345.269 892.663 419.218C909.108 490.399 906.236 569.249 884.224 638.945C873.617 672.528 858.428 704.361 839.763 734.189C819.337 766.833 792.517 795.297 763.36 820.232C754.042 828.201 744.996 835.834 734.645 842.482C736.542 837.577 740.332 833.108 742.75 828.355C750.941 812.252 753.046 797.334 752.905 779.491C753.006 651.32 752.99 523.149 752.917 394.978C752.898 361.196 752.889 327.415 752.92 293.634C752.934 278.031 752.95 262.429 752.946 246.827C752.943 236.177 753.35 225.339 752.043 214.75C751.103 207.137 749.014 199.931 747.183 192.51Z"/>
	<path fill="#315879" d="M677.44 147.822C683.952 148.112 690.852 148.011 697.286 149.016C709.405 150.909 722.694 157.336 731.064 166.419C738.327 174.3 742.591 182.942 747.183 192.51C749.014 199.931 751.103 207.137 752.043 214.75C753.35 225.339 752.943 236.177 752.946 246.827C752.95 262.429 752.934 278.031 752.92 293.634C752.889 327.415 752.898 361.196 752.917 394.978C752.99 523.149 753.006 651.32 752.905 779.491C753.046 797.334 750.941 812.252 742.75 828.355C740.332 833.108 736.542 837.577 734.645 842.482C723.535 853.575 710.565 863.398 695.532 868.452C690.107 870.276 684.489 871.357 679.046 873.112C671.663 873.055 664.288 873.669 656.907 873.837C647.604 874.05 638.274 873.923 628.969 873.917C564.777 873.876 500.585 873.527 436.39 873.533C416.277 873.535 396.164 873.539 376.05 873.545C370.608 873.546 365.166 873.541 359.724 873.551C357.076 873.557 354.01 873.238 351.465 873.948C346.066 873.741 340.458 872.077 335.314 870.531C323.872 867.092 313.478 862.347 304.099 854.809C298.213 850.079 293.241 844.627 287.898 839.328C287.548 837.578 286.389 836.079 285.494 834.547C283.904 831.826 282.409 829.082 281.039 826.242C274.147 811.95 272.43 796.599 272.586 780.901C272.325 768.325 272.637 755.723 272.644 743.143C272.659 717.615 272.654 692.087 272.659 666.559C272.674 590.146 272.627 513.732 272.629 437.319C272.631 392.255 272.655 347.192 272.623 302.129C272.611 285.879 272.589 269.629 272.507 253.379C272.433 238.676 271.101 223.395 273.298 208.813C274.016 204.048 275.491 199.328 276.881 194.723C280.046 188.27 282.768 182.043 287.135 176.25C297.351 162.7 313.786 153.505 330.25 150.085C335.012 149.096 340.058 148.986 344.89 148.313C347.291 148.78 349.99 148.584 352.437 148.584C356.857 148.583 361.277 148.582 365.697 148.581C381.775 148.577 397.853 148.571 413.93 148.564C474.798 148.54 535.666 148.496 596.533 148.496C615.178 148.495 633.822 148.498 652.467 148.48C658.128 148.475 663.789 148.464 669.451 148.455C671.957 148.451 675.189 148.912 677.44 147.822Z"/>
	<path fill="#1E3D5C" d="M511.248 784.167C515.987 783.677 521.74 785.171 525.707 787.809C531.302 791.529 535.82 797.602 536.904 804.33C537.896 810.483 536.298 817.812 532.447 822.75C527.79 828.722 520.862 831.864 513.505 832.779C507.669 832.885 502.511 831.86 497.754 828.308C492.152 824.125 488.722 818.429 487.837 811.483C487.105 805.737 488.493 798.81 492.159 794.25C497.176 788.01 503.451 785.147 511.248 784.167Z"/>
	<path fill="#1E3D5C" d="M272.586 780.901C274.57 783.433 274.787 789.594 275.676 792.889C281.427 814.207 296.628 833.776 315.845 844.62C326.64 850.711 338.327 855.114 350.75 856.288C361.705 857.324 372.681 856.512 383.664 856.506C407.882 856.493 432.088 856.143 456.305 856.151C507.744 856.167 559.185 856.484 610.626 856.499C617.426 856.501 624.277 856.346 631.071 856.586C641.996 856.973 652.881 857.248 663.813 857.088C672.759 856.957 682.399 856.577 691.053 854.13C718.347 846.412 738.579 825.488 747.673 798.939C749.104 794.76 750.049 790.278 751.01 785.969C751.415 784.151 751.531 781.635 752.52 780.058L752.905 779.491C753.046 797.334 750.941 812.252 742.75 828.355C740.332 833.108 736.542 837.577 734.645 842.482C723.535 853.575 710.565 863.398 695.532 868.452C690.107 870.276 684.489 871.357 679.046 873.112C671.663 873.055 664.288 873.669 656.907 873.837C647.604 874.05 638.274 873.923 628.969 873.917C564.777 873.876 500.585 873.527 436.39 873.533C416.277 873.535 396.164 873.539 376.05 873.545C370.608 873.546 365.166 873.541 359.724 873.551C357.076 873.557 354.01 873.238 351.465 873.948C346.066 873.741 340.458 872.077 335.314 870.531C323.872 867.092 313.478 862.347 304.099 854.809C298.213 850.079 293.241 844.627 287.898 839.328C287.548 837.578 286.389 836.079 285.494 834.547C283.904 831.826 282.409 829.082 281.039 826.242C274.147 811.95 272.43 796.599 272.586 780.901Z"/>
	<path fill="#A4D6A2" d="M503.715 767.981C467.106 768.438 430.48 768.004 393.866 767.991C383.391 767.987 372.911 767.934 362.437 768.01C356.292 768.055 349.933 768.656 343.828 767.818C336.736 766.843 329.959 764.668 324.034 760.579C314.065 753.699 307.529 743.621 305.282 731.75C303.954 724.735 304.354 717.275 304.421 710.161C304.51 700.769 304.593 691.378 304.65 681.986C304.83 652.124 304.712 622.258 304.696 592.395C304.648 503.202 304.823 414.01 304.804 324.817C304.8 301.951 304.817 279.086 304.858 256.22C304.881 243.725 303.246 229.294 306.093 217.124C308.888 205.18 316.168 195.64 326.586 189.313C332.773 185.554 339.619 183.707 346.814 183.2C355.745 182.571 364.954 182.988 373.917 182.983C390.333 182.975 406.749 182.971 423.165 182.969C474.961 182.963 526.75 183.02 578.544 183.24C600.635 183.334 622.749 183.025 644.844 183.002C657.588 182.988 671.272 181.54 683.75 184.473C693.277 186.712 701.842 192.004 708.692 198.964C714.349 204.712 718.78 213.764 720.154 221.704C721.602 230.074 721.024 239.068 721.03 247.541C721.039 261.145 721.044 274.749 721.048 288.353C721.061 332.393 721.526 376.415 721.464 420.452C721.751 444.924 721.497 469.417 721.508 493.891C721.529 540.507 721.572 587.123 721.554 633.739C721.545 654.247 721.53 674.755 721.509 695.263C721.498 705.212 722.5 716.273 721.027 726.061C719.425 736.698 714.786 746.412 707.22 754.128C697.092 764.457 683.22 768.499 669 768.41L503.715 767.981Z"/>
	<path fill="#78C57F" d="M411.242 522.931C418.447 526.891 424.68 532.206 432.01 536.013C438.926 539.606 446.238 542.253 453.569 544.846C466.687 549.486 479.737 553.206 493.469 555.524C497.175 556.149 501.098 557.146 504.862 556.912L505.534 556.34L506.237 555.484C507.238 556.459 506.853 560.351 506.873 561.847C506.983 570.377 506.959 578.91 506.937 587.441C506.926 592.244 507.214 597.392 506.58 602.143L506.488 593.941C477.198 580.109 450.034 561.372 426.25 539.475C420.977 534.62 414.383 529.492 411.242 522.931Z"/>
	<path fill="#58B74F" d="M368.807 398.04C371.481 396.983 375.326 398.074 378.177 398.47C394.348 400.717 409.387 404.55 424.4 411.033C460.596 426.665 489.631 454.396 504.194 491.28L506.38 497.904C508.618 510.726 511.73 523.391 509.957 536.505C509.16 542.4 505.916 549.719 506.237 555.484L505.534 556.34L504.862 556.912C501.098 557.146 497.175 556.149 493.469 555.524C479.737 553.206 466.687 549.486 453.569 544.846C446.238 542.253 438.926 539.606 432.01 536.013C424.68 532.206 418.447 526.891 411.242 522.931L396.379 507.403C378.62 486.375 368.959 455.3 367.588 428.148C367.078 418.049 368.003 408.089 368.807 398.04Z"/>
	<path fill="#216740" d="M457.367 502.766C460.555 503.463 467.024 504.203 468.771 507.26C469.478 508.497 469.715 509.865 469.94 511.25C468.831 512.735 467.579 513.016 465.864 513.576L465.621 513.46L457.367 502.766Z"/>
	<path fill="#2B945D" d="M420.693 461.185C426.019 462.155 430.909 467.311 435.599 469.96C438.744 471.735 442.733 472.636 445.361 475.112C445.837 477.042 446.074 477.033 447.75 478.009L449.75 479.069C450.487 480.341 450.658 481.124 450.824 482.546C442.587 477.366 435.358 471.375 426.217 467.7C424.194 466.445 422.065 463.137 420.693 461.185Z"/>
	<path fill="#216740" d="M426.217 467.7C435.358 471.375 442.587 477.366 450.824 482.546C451.491 485.159 452.698 487.541 453.962 489.911L444.379 488.416L443.822 488.207C440.21 484.218 436.7 480.14 433.157 476.09C431.221 473.877 429.371 471.395 427.139 469.481L426.217 467.7Z"/>
	<path fill="#78C57F" d="M427.139 469.481C426.672 469.765 426.319 469.937 425.75 470.018C423.738 470.304 420.812 469.648 418.75 469.476C409.543 468.708 399.602 468.077 390.594 466.023C388.495 465.544 385.784 465.156 383.987 463.987C382.858 463.252 382.175 461.329 381.944 460.024C381.677 458.513 381.642 457.505 382.548 456.25C389.575 455.36 415.013 458.165 420.693 461.185C422.065 463.137 424.194 466.445 426.217 467.7L427.139 469.481Z"/>
	<path fill="#78C57F" d="M474.416 525.008C461.926 524.662 448.933 522.718 436.75 519.957C431.283 518.718 419.515 516.781 416.573 512C416.588 509.97 416.354 509.333 417.57 507.651C420.458 507.275 423.473 508.074 426.318 508.583C430.38 509.311 434.447 509.936 438.535 510.501C447.531 511.744 456.565 512.774 465.621 513.46L465.864 513.576C467.922 517.563 471.732 521.349 474.416 525.008Z"/>
	<path fill="#78C57F" d="M458.263 503.657C445.077 502.458 432.268 500.445 419.34 497.641C415.147 496.731 408.104 495.668 404.774 492.908C403.268 491.66 402.169 489.467 402.119 487.5C402.076 485.819 402.657 484.701 403.75 483.499C409.403 483.25 415.162 484.513 420.734 485.328C428.422 486.453 436.085 487.485 443.822 488.207L444.379 488.416C445.16 490.593 447.866 492.629 449.496 494.251C452.555 497.296 455.464 500.369 458.263 503.657Z"/>
	<path fill="#2B945D" d="M368.807 398.04C371.481 396.983 375.326 398.074 378.177 398.47C394.348 400.717 409.387 404.55 424.4 411.033C460.596 426.665 489.631 454.396 504.194 491.28L506.38 497.904C508.618 510.726 511.73 523.391 509.957 536.505C509.16 542.4 505.916 549.719 506.237 555.484L505.534 556.34C497.633 541.956 490.813 526.92 482.952 512.5C480.362 507.748 475.793 503.498 473.765 498.609C469.401 493.851 465.868 488.049 461.817 482.982C455.503 475.083 448.543 467.538 441.578 460.213C436.745 455.131 431.868 450.065 426.806 445.21C424.246 442.755 420.252 440.486 418.488 437.433L368.807 398.04Z"/>
	<path fill="#216740" d="M418.488 437.433C420.382 437.606 421.974 439.838 423.498 441.011C439.504 453.332 452.596 468.284 466.583 482.75L466.498 483.498L466.002 483.498C463.65 481.03 461.318 478.095 458.193 476.628L462.477 482.002L468.204 489.762L472.742 495.823C473.417 496.703 473.525 497.548 473.765 498.609C469.401 493.851 465.868 488.049 461.817 482.982C455.503 475.083 448.543 467.538 441.578 460.213C436.745 455.131 431.868 450.065 426.806 445.21C424.246 442.755 420.252 440.486 418.488 437.433Z"/>
	<path fill="#58B74F" d="M363.423 547.467C369.331 547.497 375.105 548.894 380.9 549.93C415.265 556.076 451.876 571.128 476.748 596.273C489.898 609.568 500.913 625.815 506.464 643.814L506.982 689.273C506.979 694.42 507.218 699.603 506.39 704.688L506.373 704.927L503.769 704.112C479.597 706.202 452.74 700.963 431.825 688.464C425.315 684.573 418.494 678.28 411.451 675.768L411.005 675.618C408.904 674.052 406.967 671.764 405.092 669.897C402.167 666.985 399.063 664.109 396.417 660.941C371.392 630.973 360.153 585.987 363.423 547.467Z"/>
	<path fill="#78C57F" d="M441.362 618.92C440.512 619.495 440.275 619.657 439.25 619.698C426.151 620.225 412.012 617.543 399.036 615.762C395.296 615.249 386.322 614.779 383.594 612.045C382.491 610.941 382 609.896 381.96 608.352C381.916 606.67 381.734 606.055 382.867 604.829C387.942 603.312 395.539 605.272 400.75 605.939C410.792 607.225 421.24 609.232 431.357 608.886L441.362 618.92Z"/>
	<path fill="#78C57F" d="M395.263 637.505C393.968 636.261 392.745 634.788 392.049 633.116C391.156 630.972 391.289 628.636 392.084 626.5C392.473 626.184 392.787 625.743 393.25 625.551C393.756 625.341 395.24 625.519 395.879 625.531C399.108 625.595 402.354 625.994 405.569 626.304C421.145 627.803 436.671 629.765 452.269 631.053L466.939 648.329C461.101 648.866 455.06 647.212 449.264 646.483C438.056 645.072 426.908 643.545 415.755 641.75C408.813 640.633 401.946 639.797 395.263 637.505Z"/>
	<path fill="#78C57F" d="M489.377 680.004C487.023 680.287 484.474 679.497 482.173 679.019C477.792 678.108 473.427 677.12 469.045 676.215C455.886 673.497 442.667 670.952 429.598 667.825C424.203 666.534 418.827 665.826 413.766 663.371L413 662.993L411.701 662.35C409.372 661.079 407.199 658.914 406.604 656.25C406.16 654.262 406.489 652.694 407.442 650.952C409.715 649.632 468.764 659.148 476.196 660.176C481.269 666.221 485.678 673.04 489.377 680.004Z"/>
	<path fill="#2B945D" d="M363.423 547.467C369.331 547.497 375.105 548.894 380.9 549.93C415.265 556.076 451.876 571.128 476.748 596.273C489.898 609.568 500.913 625.815 506.464 643.814L506.982 689.273C506.979 694.42 507.218 699.603 506.39 704.688L506.373 704.927L503.769 704.112C498.08 696.769 494.561 687.761 489.377 680.004C485.678 673.04 481.269 666.221 476.196 660.176L466.939 648.329L452.269 631.053L441.362 618.92L431.357 608.886L428.513 605.578C423.929 602.603 420.209 597.723 416.202 593.989C409.844 588.064 403.236 582.34 396.752 576.547C390.064 570.572 383.379 564.522 376.518 558.75C372.131 555.059 367.295 551.705 363.423 547.467Z"/>
	<path fill="#216740" d="M428.513 605.578C432.867 607.548 436.761 612.938 440.25 616.255C443.536 619.379 447.402 621.879 450.687 625.037C455.389 629.555 459.627 634.529 464.077 639.286C471.143 646.838 478.313 654.357 485.082 662.176C492.655 670.925 499.181 680.795 506.982 689.273C506.979 694.42 507.218 699.603 506.39 704.688L506.373 704.927L503.769 704.112C498.08 696.769 494.561 687.761 489.377 680.004C485.678 673.04 481.269 666.221 476.196 660.176L466.939 648.329L452.269 631.053L441.362 618.92L431.357 608.886L428.513 605.578Z"/>
	<path fill="#78C57F" d="M510.058 209.535L511 209.091C513.711 211.243 515.672 214.218 517.759 216.95C520.647 220.729 523.537 224.461 526.616 228.088C531.273 229.862 536.622 236.821 540.21 240.43C547.257 247.517 554.296 254.611 561.36 261.681C596.176 296.526 631.038 331.325 665.905 366.12C676.904 377.098 687.917 388.062 698.89 399.066C705.015 405.209 710.996 411.618 717.367 417.498C718.602 418.637 719.833 419.941 721.464 420.452C721.751 444.924 721.497 469.417 721.508 493.891C721.529 540.507 721.572 587.123 721.554 633.739C721.545 654.247 721.53 674.755 721.509 695.263C721.498 705.212 722.5 716.273 721.027 726.061C719.425 736.698 714.786 746.412 707.22 754.128C697.092 764.457 683.22 768.499 669 768.41L503.715 767.981C496.73 761.662 490.653 754.688 484.137 747.924C478.848 742.433 473.319 737.13 467.879 731.787C458.622 722.696 449.454 713.442 440.061 704.498C433.781 698.518 427.322 692.74 421.084 686.709C417.524 683.267 413.626 679.853 411.005 675.618L411.451 675.768C418.494 678.28 425.315 684.573 431.825 688.464C452.74 700.963 479.597 706.202 503.769 704.112L506.373 704.927L506.39 704.688C507.218 699.603 506.979 694.42 506.982 689.273L506.464 643.814C507.24 641.805 507.007 639.254 507.026 637.109C507.071 631.933 506.791 626.791 506.644 621.621C506.461 615.138 506.558 608.629 506.58 602.143C507.214 597.392 506.926 592.244 506.937 587.441C506.959 578.91 506.983 570.377 506.873 561.847C506.853 560.351 507.238 556.459 506.237 555.484C505.916 549.719 509.16 542.4 509.957 536.505C511.73 523.391 508.618 510.726 506.38 497.904C507.879 495.512 507.023 487.661 507.017 484.583C506.992 470.618 506.605 456.654 506.639 442.691C503.173 438.857 500.059 434.699 496.84 430.66C493.81 426.857 490.59 423.258 488.006 419.123C484.967 416.636 482.395 413.232 479.864 410.222C465.97 393.7 458.022 374.457 454.96 353.156C451.673 330.289 455.719 305.982 464.253 284.675C469.324 272.015 476.146 260.125 483.249 248.52C491.581 234.906 500.317 222.187 510.058 209.535Z"/>
	<path fill="#D55F2D" d="M650.313 453.028C642.439 487.471 615.842 520.063 586.179 538.65C574.634 545.884 561.837 551.404 548.373 553.819C537.885 555.701 527.162 555.724 516.544 556L516.566 553.631L517.039 553.436C524.54 550.272 531.552 545.033 538.969 541.44C562.017 530.272 585.106 519.029 606.61 505.033C615.252 499.409 623.81 493.798 630.958 486.252C636.932 479.945 641.027 473.102 644.335 465.127C646.329 461.183 647.752 456.591 650.313 453.028Z"/>
	<path fill="#D55F2D" d="M525.636 684.897C546.815 679.089 568.963 674.861 589.2 666.174C601.071 661.078 612.155 654.243 622.003 645.891C626.662 641.94 631.813 637.788 635.322 632.747C637.724 629.295 639.856 625.859 641.693 622.08C643.683 617.986 645.338 611.276 648.307 608.001L648.879 607.409C643.263 637.395 623.144 666.837 598.044 683.97C573.329 700.84 545.899 704.266 516.784 704.673L516.653 701.854L525.636 684.897Z"/>
	<path fill="#FAB642" d="M517.424 639.675L525.57 620.461C541.872 587.163 575.722 564.928 609.981 553.299C620.188 549.835 630.731 548.545 641.183 546.186C644.748 545.382 648.294 544.092 651.894 543.538C652.583 543.432 653.885 543.094 654.5 543.222C655.004 543.328 655.424 543.675 655.886 543.902C642.837 556.116 628.828 567.336 615.553 579.33C592.963 599.739 571.858 621.555 552.73 645.25C542.657 657.728 532.875 670.539 525.636 684.897L516.653 701.854L517.424 639.675Z"/>
	<path fill="#EF7E2A" d="M655.886 543.902C656.396 564.656 654.344 587.325 648.879 607.409L648.307 608.001C645.338 611.276 643.683 617.986 641.693 622.08C639.856 625.859 637.724 629.295 635.322 632.747C631.813 637.788 626.662 641.94 622.003 645.891C612.155 654.243 601.071 661.078 589.2 666.174C568.963 674.861 546.815 679.089 525.636 684.897C532.875 670.539 542.657 657.728 552.73 645.25C571.858 621.555 592.963 599.739 615.553 579.33C628.828 567.336 642.837 556.116 655.886 543.902Z"/>
	<path fill="#2B945D" d="M510.058 209.535L511 209.091C513.711 211.243 515.672 214.218 517.759 216.95C520.647 220.729 523.537 224.461 526.616 228.088L526.819 228.536C528.759 232.733 531.87 236.665 534.476 240.49C538.889 246.969 543.326 253.461 547.405 260.159C568.828 295.332 577.354 336.186 563.006 375.834C555.374 396.922 539.206 417.362 518.579 426.822C517.747 427.204 516.923 427.59 516.041 427.836L511.75 428.527L511.04 428L510.67 394.185L510.568 393.438L508.18 391.089L510.577 389.247L510.214 388.743C511.544 384.997 510.857 379.959 510.857 375.965C510.858 370.548 510.871 365.129 510.725 359.713C510.649 356.88 510.83 353.793 509.693 351.154L510.253 350.897L509.77 347.891L510.875 346.787L510.403 309.096L508.67 306.972L510.142 304.633L510.535 304.272C509.859 298.165 510.118 291.831 510.113 285.692C510.105 274.442 510.316 263.204 510.449 251.957C510.617 237.807 509.79 223.652 510.058 209.535Z"/>
	<path fill="#3C4A3B" d="M510.535 304.272C516.939 299.058 522.647 293.119 528.498 287.308C531.606 284.222 537.186 277.257 541.25 276.044C542.265 276.515 542.235 276.471 542.669 277.5C541.128 280.58 536.885 283.944 534.389 286.38C526.504 294.077 518.344 301.466 510.403 309.096L508.67 306.972L510.142 304.633L510.535 304.272Z"/>
	<path fill="#3C4A3B" d="M510.577 389.247C513.054 387.818 515.401 386.233 517.587 384.387C520.396 382.015 522.884 379.309 525.621 376.86C532.185 370.989 538.772 365.129 545.418 359.35C547.125 357.865 551.425 353.39 553.5 353.049C553.869 352.989 554.236 353.183 554.604 353.25L554.818 354.328L510.568 393.438L508.18 391.089L510.577 389.247Z"/>
	<path fill="#3C4A3B" d="M510.875 346.787C520.716 337.596 530.83 328.611 540.904 319.676C544.114 316.829 547.717 312.49 551.5 310.558L552.537 311.5C552.205 313.243 551.721 313.851 550.507 315.174C545.845 320.257 539.753 324.83 534.6 329.492C529.444 334.157 524.284 338.809 519.083 343.424C516.568 345.656 514.028 348.281 511.322 350.244L510.253 350.897L509.77 347.891L510.875 346.787Z"/>
	<path fill="#58B74F" d="M488.006 419.123C484.967 416.636 482.395 413.232 479.864 410.222C465.97 393.7 458.022 374.457 454.96 353.156C451.673 330.289 455.719 305.982 464.253 284.675C469.324 272.015 476.146 260.125 483.249 248.52C491.581 234.906 500.317 222.187 510.058 209.535C509.79 223.652 510.617 237.807 510.449 251.957C510.316 263.204 510.105 274.442 510.113 285.692C510.118 291.831 509.859 298.165 510.535 304.272L510.142 304.633L508.67 306.972L510.403 309.096L510.875 346.787L509.77 347.891L510.253 350.897L509.693 351.154C510.83 353.793 510.649 356.88 510.725 359.713C510.871 365.129 510.858 370.548 510.857 375.965C510.857 379.959 511.544 384.997 510.214 388.743L510.577 389.247L508.18 391.089L510.568 393.438L510.67 394.185L511.04 428L511.75 428.527L516.041 427.836C517.173 448.525 516.543 469.526 516.509 490.255C516.5 496.076 516.517 501.899 516.46 507.719C516.427 511.155 515.787 515.709 517.008 518.912L516.553 550.434L516.566 553.631L516.544 556C516.491 574.073 516.902 592.137 516.945 610.209C516.96 616.551 516.967 622.893 516.986 629.234C516.996 632.636 516.625 636.375 517.424 639.675L516.653 701.854L516.784 704.673C517.347 709.042 516.988 713.808 517.025 718.221C517.08 724.843 517.28 731.467 517.242 738.09C517.226 740.836 517.613 744.613 516.25 747.011C515.166 747.983 514.321 748.7 512.833 748.909C511.326 749.12 509.583 748.53 508.5 747.479C507.434 746.445 506.973 745.358 506.825 743.895C506.427 739.94 506.9 735.6 506.936 731.602C507.016 722.898 507.017 714.204 506.915 705.5L506.373 704.927L506.39 704.688C507.218 699.603 506.979 694.42 506.982 689.273L506.464 643.814C507.24 641.805 507.007 639.254 507.026 637.109C507.071 631.933 506.791 626.791 506.644 621.621C506.461 615.138 506.558 608.629 506.58 602.143C507.214 597.392 506.926 592.244 506.937 587.441C506.959 578.91 506.983 570.377 506.873 561.847C506.853 560.351 507.238 556.459 506.237 555.484C505.916 549.719 509.16 542.4 509.957 536.505C511.73 523.391 508.618 510.726 506.38 497.904C507.879 495.512 507.023 487.661 507.017 484.583C506.992 470.618 506.605 456.654 506.639 442.691C503.173 438.857 500.059 434.699 496.84 430.66C493.81 426.857 490.59 423.258 488.006 419.123Z"/>
	<path fill="#78C57F" d="M488.006 419.123C491.764 420.445 494.508 422.553 497.871 424.528C500.711 426.196 503.687 427.576 506.461 429.357L506.639 442.691C503.173 438.857 500.059 434.699 496.84 430.66C493.81 426.857 490.59 423.258 488.006 419.123Z"/>
	<path fill="#216740" d="M508.67 306.972C505.1 304.086 501.875 300.624 498.5 297.5C493.953 293.291 489.407 289.128 485.021 284.745C483.004 282.728 480.134 280.204 479.25 277.426C480.479 276.411 480.686 276.248 482.25 276.012L510.142 304.633L508.67 306.972Z"/>
	<path fill="#216740" d="M509.693 351.154C498.785 342.499 488.831 332.259 478.689 322.703C475.875 320.05 469.484 315.873 468.463 312.25C468.775 310.822 468.809 310.893 470 310.025C474.778 312.373 479.791 318.705 483.628 322.433C492.352 330.91 501.092 339.365 509.77 347.891L510.253 350.897L509.693 351.154Z"/>
	<path fill="#216740" d="M508.18 391.089C501.416 386.22 495.287 380.386 489 374.934C483.448 370.12 477.789 365.37 472.515 360.247C470.231 358.028 467.563 355.796 466.014 353C466.706 351.9 467.001 351.965 468.25 351.53L510.214 388.743L510.577 389.247L508.18 391.089Z"/>
	<path fill="#FAB642" d="M517.008 518.912C518.726 510.898 519.831 502.763 521.542 494.75C526.119 473.318 534.759 453.239 549.353 436.688C571.363 411.728 604.015 398.566 635.619 390.852C642.419 389.192 649.999 386.954 656.976 386.507C656.896 399.065 657.169 411.823 656.139 424.341C655.664 430.112 654.52 435.717 653.879 441.446L652.711 446.392L650.313 453.028C647.752 456.591 646.329 461.183 644.335 465.127C641.027 473.102 636.932 479.945 630.958 486.252C623.81 493.798 615.252 499.409 606.61 505.033C585.106 519.029 562.017 530.272 538.969 541.44C531.552 545.033 524.54 550.272 517.039 553.436L516.566 553.631L516.553 550.434L517.008 518.912Z"/>
	<path fill="#F28D2C" d="M656.976 386.507C656.896 399.065 657.169 411.823 656.139 424.341C655.664 430.112 654.52 435.717 653.879 441.446C650.721 441.949 647.81 443.475 644.905 444.76C639.335 447.223 633.933 449.931 628.471 452.615C619.29 457.126 609.516 460.746 599.844 464.062C591.066 467.071 581.824 470.235 572.472 470.426C590.441 446.644 612.664 425.647 634.809 405.824C642.114 399.286 649.781 393.178 656.976 386.507Z"/>
	<path fill="#EF7E2A" d="M572.472 470.426C581.824 470.235 591.066 467.071 599.844 464.062C609.516 460.746 619.29 457.126 628.471 452.615C633.933 449.931 639.335 447.223 644.905 444.76C647.81 443.475 650.721 441.949 653.879 441.446L652.711 446.392L650.313 453.028C647.752 456.591 646.329 461.183 644.335 465.127C641.027 473.102 636.932 479.945 630.958 486.252C623.81 493.798 615.252 499.409 606.61 505.033C585.106 519.029 562.017 530.272 538.969 541.44C531.552 545.033 524.54 550.272 517.039 553.436L516.566 553.631L516.553 550.434L553.594 495.874C557.127 490.713 560.549 484.186 564.955 479.819L572.472 470.426Z"/>
	<path fill="#F28D2C" d="M572.472 470.426C581.824 470.235 591.066 467.071 599.844 464.062C609.516 460.746 619.29 457.126 628.471 452.615C633.933 449.931 639.335 447.223 644.905 444.76C647.81 443.475 650.721 441.949 653.879 441.446L652.711 446.392L650.313 453.028C647.752 456.591 646.329 461.183 644.335 465.127C640.112 466.103 636.385 468.16 632.487 469.988C626.932 472.593 621.345 475.124 615.72 477.573C606.645 481.523 597.342 484.597 587.905 487.546C576.522 491.103 565.435 494.197 553.594 495.874C557.127 490.713 560.549 484.186 564.955 479.819L572.472 470.426Z"/>
	<path fill="#EF7E2A" d="M572.472 470.426C581.824 470.235 591.066 467.071 599.844 464.062C609.516 460.746 619.29 457.126 628.471 452.615C633.933 449.931 639.335 447.223 644.905 444.76C647.81 443.475 650.721 441.949 653.879 441.446L652.711 446.392C651.392 446.093 650.633 446.009 649.308 446.382C644.942 447.61 640.812 450.107 636.631 451.858C619.707 458.949 602.559 465.631 585.506 472.41C580.912 474.236 576.349 476.143 571.75 477.957C569.646 478.786 567.245 479.99 564.955 479.819L572.472 470.426Z"/>
</svg>
